<svg xmlns="http://www.w3.org/2000/svg" version="1.1" viewBox="0.00 0.00 363.00 232.00">
<path fill="#ffffff" d="
  M 201.51 12.63
  Q 202.72 14.30 202.59 16.23
  A 0.44 0.44 0.0 0 1 201.75 16.36
  Q 199.39 10.44 192.77 10.23
  A 1.72 1.72 0.0 0 0 191.00 11.95
  Q 191.03 29.39 190.80 46.75
  Q 190.77 49.40 193.76 52.60
  Q 194.41 53.29 193.46 53.29
  L 177.81 53.17
  Q 177.05 53.16 177.50 52.56
  L 179.90 49.39
  Q 180.24 48.94 180.24 48.38
  Q 180.27 30.93 180.26 13.51
  C 180.25 8.34 173.00 10.10 169.70 9.95
  Q 169.16 9.92 169.09 9.39
  Q 168.53 5.03 170.22 1.00
  Q 170.54 0.25 170.96 0.94
  Q 173.90 5.79 179.23 5.74
  C 185.02 5.68 197.08 7.28 201.69 4.20
  Q 202.30 3.80 202.35 4.52
  L 202.87 11.06
  Q 202.92 11.61 202.37 11.71
  L 201.85 11.80
  Q 201.01 11.95 201.51 12.63
  Z"
/>
<path fill="#ffffff" d="
  M 107.05 33.93
  C 106.49 39.96 106.39 47.56 110.11 52.69
  Q 110.68 53.48 109.76 53.18
  Q 107.87 52.58 106.01 52.85
  Q 99.52 53.81 93.09 52.50
  Q 92.35 52.35 92.94 51.87
  L 94.69 50.45
  Q 95.14 50.08 95.23 49.50
  C 96.82 38.89 96.22 26.67 96.37 10.64
  C 96.40 7.73 95.19 6.23 93.45 4.15
  A 0.41 0.41 0.0 0 1 93.84 3.49
  Q 98.06 4.33 102.38 4.63
  C 109.85 5.15 119.62 2.66 123.90 11.40
  C 128.45 20.71 122.55 30.85 112.49 32.18
  Q 110.02 32.51 107.63 33.22
  Q 107.10 33.38 107.05 33.93
  Z
  M 114.18 25.49
  A 0.32 0.32 0.0 0 1 113.71 25.09
  C 116.87 18.92 116.83 12.31 109.52 9.35
  A 1.58 1.58 0.0 0 0 107.35 10.80
  L 107.10 27.24
  Q 107.09 27.97 107.81 28.05
  Q 113.48 28.65 116.78 24.10
  Q 116.83 24.04 116.78 23.96
  Q 116.72 23.85 116.64 23.76
  Q 116.59 23.70 116.52 23.74
  L 114.18 25.49
  Z"
/>
<path fill="#ffffff" d="
  M 218.87 31.88
  Q 218.40 40.35 219.18 48.78
  Q 219.23 49.27 219.01 49.72
  L 218.69 50.40
  Q 218.48 50.83 218.90 51.05
  L 220.21 51.77
  Q 221.26 52.34 220.09 52.57
  C 216.73 53.21 211.70 54.02 208.60 52.42
  Q 208.23 52.23 207.85 52.36
  Q 207.03 52.64 206.24 52.92
  Q 203.59 53.88 205.86 52.21
  Q 206.89 51.45 207.96 50.84
  Q 208.43 50.57 208.35 50.04
  Q 208.03 47.76 208.20 45.57
  C 209.04 34.48 208.53 22.90 208.54 11.75
  Q 208.54 7.98 206.24 5.00
  A 0.45 0.45 0.0 0 1 206.73 4.29
  Q 213.28 6.32 219.87 4.23
  Q 220.56 4.01 220.47 4.74
  Q 220.34 5.75 219.52 6.41
  Q 219.04 6.80 219.02 7.42
  L 218.64 24.01
  Q 218.63 24.65 219.21 24.90
  C 221.32 25.81 222.86 25.01 224.79 24.90
  Q 227.40 24.74 230.28 25.61
  A 1.76 1.75 7.5 0 0 232.54 23.88
  C 232.39 18.68 233.77 9.31 230.81 4.72
  A 0.38 0.38 0.0 0 1 231.26 4.15
  Q 237.98 6.53 244.81 4.44
  Q 245.84 4.12 245.24 5.02
  L 243.53 7.58
  Q 243.25 8.01 243.25 8.53
  L 243.26 50.39
  Q 243.26 50.75 243.58 50.92
  Q 244.53 51.41 245.31 52.17
  Q 246.06 52.89 245.03 52.69
  C 242.29 52.14 240.28 53.91 237.74 53.53
  Q 234.58 53.06 231.41 52.60
  Q 230.04 52.41 231.30 51.83
  L 232.14 51.45
  Q 232.55 51.26 232.55 50.80
  L 232.48 32.86
  Q 232.47 31.50 231.11 31.50
  L 219.27 31.50
  Q 218.89 31.50 218.87 31.88
  Z"
/>
<path fill="#ffffff" d="
  M 139.33 12.63
  C 142.06 8.84 145.84 2.25 151.26 6.84
  Q 151.68 7.20 152.07 6.81
  L 152.55 6.33
  Q 152.93 5.95 153.33 6.31
  C 166.92 18.64 165.99 33.39 166.46 50.18
  Q 166.48 50.74 166.99 50.99
  L 168.20 51.59
  Q 169.05 52.01 168.12 52.23
  Q 161.73 53.77 158.01 53.23
  Q 153.80 52.61 152.15 52.70
  Q 151.98 52.71 151.99 52.54
  Q 152.00 52.39 152.00 52.26
  Q 152.00 52.09 152.16 52.03
  Q 153.75 51.40 154.95 50.19
  Q 155.33 49.80 155.22 49.27
  C 154.42 45.59 156.30 41.88 150.83 41.44
  C 144.03 40.88 138.67 40.49 140.98 49.85
  Q 141.10 50.36 141.53 50.66
  Q 142.28 51.20 142.85 51.90
  Q 143.59 52.80 142.46 52.48
  C 140.64 51.95 139.77 52.89 138.18 52.95
  Q 132.38 53.16 126.62 52.29
  A 0.21 0.20 32.1 0 1 126.53 51.92
  C 130.66 49.19 129.24 40.07 129.47 35.50
  C 129.92 26.62 133.33 14.65 140.08 8.39
  Q 140.53 7.97 140.74 8.55
  C 140.92 9.08 138.98 11.39 138.83 12.43
  Q 138.67 13.55 139.33 12.63
  Z
  M 146.85 11.38
  C 143.09 16.41 138.49 27.27 142.73 33.29
  Q 143.02 33.70 143.49 33.87
  C 146.19 34.84 154.14 35.51 154.37 30.98
  Q 154.92 20.10 149.09 11.44
  A 1.38 1.38 0.0 0 0 146.85 11.38
  Z"
/>
<path fill="#ffffff" d="
  M 279.90 28.19
  L 283.55 27.29
  Q 284.06 27.17 283.90 27.68
  Q 282.97 30.70 279.90 30.99
  Q 279.37 31.04 279.23 31.56
  Q 277.84 36.48 280.27 40.81
  Q 280.50 41.22 280.02 41.23
  L 271.97 41.30
  Q 271.32 41.30 271.66 40.76
  Q 272.05 40.14 272.67 39.98
  Q 273.28 39.82 273.40 39.21
  Q 275.40 29.15 273.42 19.10
  Q 273.30 18.49 273.92 18.57
  Q 280.55 19.41 287.12 18.09
  Q 287.73 17.97 287.72 18.59
  L 287.69 22.53
  Q 287.68 23.40 286.99 22.88
  Q 283.53 20.24 279.34 22.18
  Q 278.90 22.38 278.93 22.86
  L 279.25 27.71
  Q 279.29 28.34 279.90 28.19
  Z"
/>
<path fill="#ffffff" d="
  M 256.06 22.28
  C 258.37 19.84 261.40 17.75 264.81 19.52
  Q 265.26 19.75 265.77 19.75
  L 267.51 19.75
  Q 268.02 19.75 268.36 20.13
  Q 276.52 29.07 268.50 38.01
  C 264.70 42.26 258.13 41.80 254.32 37.82
  C 249.36 32.64 250.14 23.84 255.99 19.47
  C 256.28 19.26 256.67 19.20 256.97 19.32
  Q 257.55 19.56 257.05 19.94
  Q 255.95 20.78 255.53 21.95
  Q 255.02 23.38 256.06 22.28
  Z
  M 265.23 36.24
  A 0.40 0.39 -84.5 0 1 264.74 35.64
  Q 268.20 31.39 266.59 26.61
  C 263.41 17.18 253.97 24.24 256.95 32.44
  C 257.74 34.61 259.78 36.10 261.51 37.66
  Q 261.85 37.97 262.30 37.99
  Q 265.49 38.17 267.43 35.75
  Q 267.51 35.64 267.41 35.54
  L 267.22 35.35
  Q 267.09 35.21 266.92 35.30
  L 265.23 36.24
  Z"
/>
<rect fill="#ffffff" x="-2.11" y="-2.04" transform="translate(261.94,29.81) rotate(-44.3)" width="4.22" height="4.08" rx="0.71"/>
<path fill="#ffffff" d="
  M 78.18 149.66
  Q 82.31 144.21 84.10 137.55
  C 84.23 137.09 84.58 136.73 84.96 136.50
  A 0.39 0.39 0.0 0 1 85.54 136.91
  Q 84.40 143.07 84.28 149.26
  Q 84.19 153.37 80.01 168.82
  Q 79.92 169.19 79.53 169.19
  L 11.66 168.93
  Q 11.20 168.92 10.92 168.54
  C 8.88 165.70 4.16 168.79 1.18 169.11
  Q 0.54 169.18 0.49 168.54
  Q 0.36 167.10 1.19 165.52
  C 6.30 155.69 7.54 146.73 7.97 134.53
  Q 9.07 103.26 8.67 71.98
  Q 8.62 67.81 7.67 64.51
  C 6.52 60.49 5.34 55.12 2.62 51.65
  Q 2.22 51.13 2.85 50.98
  C 5.44 50.37 8.49 51.13 10.29 51.14
  Q 34.07 51.29 57.85 51.25
  C 65.23 51.24 71.61 51.48 80.70 51.00
  Q 81.21 50.97 81.29 51.48
  Q 83.21 64.61 86.20 77.54
  Q 86.32 78.06 86.61 78.51
  L 87.47 79.89
  Q 87.92 80.60 87.08 80.63
  C 86.84 80.64 83.62 76.44 82.88 75.85
  C 75.90 70.31 68.41 66.02 59.23 65.67
  C 51.78 65.39 38.36 63.68 33.65 71.48
  C 29.97 77.57 30.95 85.48 31.08 93.24
  C 31.15 97.51 32.98 99.71 37.30 100.48
  Q 47.05 102.21 56.95 101.87
  Q 57.43 101.85 57.81 102.13
  L 66.57 108.48
  A 0.64 0.64 0.0 0 1 66.57 109.52
  C 62.95 112.13 58.07 116.08 53.64 116.29
  C 48.48 116.53 43.35 117.14 38.19 117.39
  C 32.86 117.65 30.85 120.94 30.33 126.05
  Q 29.33 135.96 31.31 144.01
  Q 33.17 151.56 41.53 152.88
  Q 55.27 155.05 67.99 151.96
  Q 73.45 150.62 77.80 146.29
  Q 78.15 145.94 78.56 146.22
  C 79.00 146.51 77.61 148.81 77.57 149.43
  Q 77.49 150.58 78.18 149.66
  Z"
/>
<path fill="#ffffff" d="
  M 359.03 148.55
  Q 360.13 146.67 360.82 144.65
  Q 360.96 144.26 361.27 144.54
  C 363.43 146.49 359.00 165.74 358.29 169.07
  A 0.57 0.56 -83.6 0 1 357.74 169.52
  L 275.74 169.48
  Q 275.49 169.48 275.50 169.24
  Q 275.50 169.11 275.50 168.98
  Q 275.50 168.92 275.56 168.92
  Q 276.94 168.82 278.01 167.03
  C 284.91 155.49 286.02 146.75 285.84 132.77
  Q 285.79 128.95 286.22 120.25
  C 286.53 113.91 285.84 106.66 285.82 101.33
  Q 285.77 88.92 285.50 76.50
  Q 285.31 67.76 282.14 59.71
  C 281.21 57.36 279.27 54.72 278.11 52.13
  Q 277.63 51.05 278.59 51.74
  L 279.98 52.74
  Q 280.36 53.00 280.57 52.60
  L 280.77 52.23
  Q 281.05 51.71 281.64 51.74
  C 295.73 52.68 309.83 52.56 324.00 53.16
  C 328.55 53.35 333.37 52.63 338.17 52.76
  Q 338.71 52.78 339.15 53.09
  Q 340.06 53.75 341.04 53.07
  Q 341.48 52.76 341.97 52.96
  C 345.84 54.48 352.03 52.96 356.12 52.41
  A 0.71 0.71 0.0 0 1 356.91 52.97
  L 360.37 70.32
  A 0.54 0.54 0.0 0 1 359.38 70.71
  L 357.18 67.19
  A 0.37 0.37 0.0 0 0 356.50 67.34
  Q 356.39 68.26 357.06 68.93
  Q 357.37 69.23 357.57 69.62
  L 362.68 79.57
  A 0.27 0.27 0.0 0 1 362.28 79.91
  C 356.87 75.78 350.57 70.41 343.97 68.60
  Q 332.70 65.52 321.10 66.66
  C 312.87 67.47 308.47 71.19 307.76 79.52
  C 307.13 87.00 305.31 100.92 315.67 102.13
  Q 325.04 103.22 334.46 103.30
  Q 334.82 103.30 335.13 103.51
  L 343.66 109.49
  A 0.33 0.32 -45.4 0 1 343.66 110.02
  L 334.78 116.40
  Q 334.37 116.69 333.88 116.72
  Q 321.08 117.59 314.51 118.29
  Q 308.70 118.91 308.03 124.83
  Q 306.76 136.07 309.50 145.75
  C 312.78 157.32 334.13 154.94 342.26 153.55
  Q 352.17 151.86 357.96 143.69
  A 0.51 0.51 0.0 0 1 358.88 143.92
  L 359.20 146.54
  Q 359.26 147.03 358.84 147.29
  Q 358.31 147.63 358.22 148.24
  Q 357.90 150.50 359.03 148.55
  Z"
/>
<path fill="#ffffff" d="
  M 184.19 232.00
  L 183.19 232.00
  C 178.96 218.77 177.66 205.36 176.76 191.25
  Q 176.73 190.80 177.29 189.89
  Q 177.54 189.47 177.51 188.97
  C 177.18 183.10 175.85 176.95 175.60 171.58
  C 174.35 144.30 174.83 116.99 173.57 89.82
  Q 173.20 81.97 172.09 78.27
  Q 167.95 64.57 153.22 59.80
  Q 152.08 59.43 151.24 58.20
  Q 150.85 57.62 151.53 57.74
  Q 154.78 58.31 157.98 58.77
  C 159.92 59.05 161.90 59.83 164.25 59.30
  C 174.27 57.03 186.07 57.37 196.26 58.20
  C 199.83 58.49 204.40 60.41 208.70 59.41
  Q 211.81 58.68 213.67 58.68
  Q 214.21 58.68 214.68 58.42
  Q 216.40 57.47 218.41 57.82
  Q 218.86 57.89 218.73 58.33
  Q 218.64 58.68 218.00 58.70
  Q 217.67 58.72 217.36 58.63
  Q 215.25 58.04 214.10 60.11
  Q 213.85 60.56 213.38 60.76
  C 208.66 62.79 202.59 65.40 199.72 69.79
  Q 196.05 75.40 195.61 81.51
  C 192.34 126.18 195.81 171.56 189.00 215.50
  Q 187.76 223.54 184.19 232.00
  Z"
/>
<path fill="#ffffff" d="
  M 154.35 163.37
  A 0.60 0.59 -33.1 0 0 154.11 164.50
  L 163.35 168.93
  Q 163.56 169.03 163.50 169.25
  Q 163.46 169.38 163.42 169.50
  Q 163.32 169.78 163.06 169.65
  Q 159.79 168.11 158.25 168.46
  C 150.02 170.32 142.47 169.64 134.20 169.25
  Q 133.11 169.19 134.10 168.74
  C 135.11 168.27 140.45 166.27 140.19 165.19
  Q 140.11 164.88 139.78 164.91
  L 137.62 165.17
  Q 136.73 165.27 137.00 164.42
  C 137.90 161.58 139.00 158.84 138.70 155.84
  Q 137.56 144.23 131.81 134.18
  A 0.66 0.66 0.0 0 0 130.76 134.05
  L 125.33 139.69
  Q 125.01 140.02 124.70 139.69
  L 119.24 133.99
  A 0.65 0.64 38.2 0 0 118.22 134.11
  C 114.77 140.08 111.65 148.68 111.16 154.82
  Q 110.52 162.87 116.63 169.17
  Q 116.87 169.41 116.54 169.48
  Q 115.89 169.62 115.34 169.30
  Q 114.92 169.04 114.42 169.10
  Q 103.56 170.50 92.70 168.96
  Q 92.29 168.91 92.25 168.50
  L 92.02 166.12
  Q 91.97 165.57 92.48 165.35
  Q 93.86 164.75 94.61 163.49
  Q 95.15 162.58 94.17 162.98
  L 93.26 163.35
  Q 92.85 163.51 92.42 163.60
  Q 90.69 163.96 90.99 162.75
  C 92.48 156.72 94.23 153.81 95.71 149.18
  C 97.88 142.38 100.82 136.08 103.53 129.49
  C 107.05 120.91 104.23 114.65 100.75 105.95
  C 97.39 97.56 95.38 88.88 92.89 80.28
  C 91.78 76.47 89.92 74.67 89.18 71.90
  Q 88.99 71.22 89.69 71.32
  C 91.02 71.50 92.11 72.09 93.43 71.96
  Q 99.73 71.33 106.04 71.80
  C 110.64 72.14 113.60 71.36 117.59 69.73
  A 0.30 0.29 -78.8 0 1 117.91 70.21
  C 107.18 81.06 112.16 97.16 119.31 108.34
  A 0.77 0.76 -45.7 0 0 120.61 108.32
  Q 121.72 106.53 123.73 107.28
  Q 124.50 107.57 124.50 106.75
  L 124.50 105.20
  Q 124.50 104.53 125.10 104.83
  Q 128.15 106.32 130.18 108.92
  Q 130.52 109.36 130.84 108.89
  C 137.90 98.24 143.13 82.95 134.40 71.53
  A 0.67 0.67 0.0 0 1 135.29 70.56
  C 137.84 72.16 139.77 72.76 142.96 72.09
  C 149.85 70.66 155.33 74.07 161.64 70.98
  A 0.79 0.79 0.0 0 1 162.56 72.23
  C 159.36 75.61 157.94 78.75 156.71 83.65
  Q 152.57 100.15 145.82 115.80
  C 143.04 122.24 146.20 130.29 149.97 138.26
  Q 153.70 146.15 157.80 159.99
  Q 158.19 161.30 159.27 163.01
  Q 159.57 163.46 159.31 163.94
  C 158.35 165.75 155.61 163.33 154.35 163.37
  Z"
/>
<path fill="#ffffff" d="
  M 232.01 72.54
  L 233.89 71.40
  A 0.49 0.49 0.0 0 1 234.59 72.01
  C 230.46 81.63 229.42 89.47 229.57 100.86
  Q 229.84 120.74 229.77 140.62
  C 229.75 146.37 230.91 153.11 236.86 155.40
  C 245.25 158.64 258.46 153.77 266.50 151.48
  Q 267.34 151.24 268.71 152.13
  Q 269.24 152.47 269.71 152.06
  L 273.18 149.09
  Q 274.05 148.34 273.94 149.49
  Q 273.05 159.09 270.86 168.48
  Q 270.74 169.02 270.19 169.03
  C 249.86 169.74 229.59 169.61 209.25 170.27
  Q 207.34 170.33 205.66 169.56
  Q 205.17 169.34 205.33 168.83
  C 207.76 160.82 210.63 156.34 210.74 146.44
  Q 211.02 120.39 210.99 94.34
  C 210.98 85.66 209.96 79.76 206.18 72.67
  A 0.63 0.62 68.6 0 1 206.56 71.78
  Q 207.24 71.59 207.77 71.87
  Q 208.18 72.09 208.64 72.05
  C 213.47 71.63 227.27 70.18 231.10 72.54
  Q 231.55 72.82 232.01 72.54
  Z"
/>
</svg>
