<?xml version="1.0" encoding="UTF-8" standalone="no"?>
<svg
   version="1.1"
   viewBox="0 0 305.43866 182.72127"
   id="svg190"
   sodipodi:docname="smol-logo.svg"
   xml:space="preserve"
   inkscape:version="1.2 (dc2aeda, 2022-05-15)"
   width="305.43866"
   height="182.72127"
   xmlns:inkscape="http://www.inkscape.org/namespaces/inkscape"
   xmlns:sodipodi="http://sodipodi.sourceforge.net/DTD/sodipodi-0.dtd"
   xmlns="http://www.w3.org/2000/svg"
   xmlns:svg="http://www.w3.org/2000/svg"><defs
     id="defs194" /><sodipodi:namedview
     id="namedview192"
     pagecolor="#ffffff"
     bordercolor="#000000"
     borderopacity="0.25"
     inkscape:showpageshadow="2"
     inkscape:pageopacity="0.0"
     inkscape:pagecheckerboard="0"
     inkscape:deskcolor="#d1d1d1"
     showgrid="false"
     inkscape:zoom="3.4179607"
     inkscape:cx="147.89521"
     inkscape:cy="136.19232"
     inkscape:window-width="2560"
     inkscape:window-height="1387"
     inkscape:window-x="0"
     inkscape:window-y="25"
     inkscape:window-maximized="0"
     inkscape:current-layer="g1236" /><g
     id="g4355"
     style="fill:#999999"
     transform="translate(-0.47239583,-0.60937699)"><path
       fill="#ffffff"
       d="m 151.01153,9.6105489 q 0.90606,1.2505141 0.80871,2.6957191 a 0.32947676,0.32947676 0 0 1 -0.629,0.09735 q -1.76719,-4.4329597 -6.72432,-4.59021 a 1.2879546,1.2879546 0 0 0 -1.32539,1.2879546 q 0.0225,13.0592604 -0.14977,26.0586164 -0.0225,1.984348 2.21648,4.380543 0.48673,0.516679 -0.22464,0.516679 l -11.71889,-0.08986 q -0.5691,-0.0075 -0.23213,-0.456775 l 1.79715,-2.37373 q 0.25459,-0.336965 0.25459,-0.756299 0.0225,-13.066748 0.015,-26.111033 c -0.007,-3.8713514 -5.43637,-2.5534444 -7.90745,-2.665766 q -0.40435,-0.022464 -0.45677,-0.4193341 -0.41933,-3.2648151 0.84616,-6.28252268 0.23962,-0.5616081 0.55412,-0.0449287 2.2015,3.63173248 6.19266,3.59429198 c 4.33562,-0.044929 13.36627,1.1531686 16.81829,-1.1531687 q 0.45678,-0.2995243 0.49422,0.2396195 l 0.38938,4.8972227 q 0.0374,0.4118459 -0.37441,0.486727 l -0.38938,0.067393 q -0.629,0.1123216 -0.25459,0.6215129 z"
       id="path166"
       style="fill:#999999;stroke-width:0.748811" /><path
       fill="#ffffff"
       d="m 80.278858,25.560219 c -0.419334,4.515329 -0.494215,10.206291 2.291361,14.047691 q 0.426822,0.59156 -0.262084,0.366917 -1.415252,-0.449286 -2.80804,-0.247107 -4.859783,0.718858 -9.674636,-0.262084 -0.55412,-0.112322 -0.112322,-0.471751 l 1.310419,-1.063311 q 0.336965,-0.27706 0.404358,-0.711371 C 72.618523,29.274321 72.169237,20.123853 72.281558,8.1204154 72.304023,5.941376 71.397962,4.8181597 70.095031,3.2606333 a 0.30701243,0.30701243 0 0 1 0.292036,-0.4942152 q 3.159982,0.6290011 6.394844,0.8536444 C 82.375528,4.0094441 89.69141,2.1449052 92.89632,8.6895116 96.303409,15.66094 91.885425,23.253882 84.352389,24.2498 q -1.849563,0.247108 -3.639221,0.778763 -0.39687,0.11981 -0.43431,0.531656 z m 5.339021,-6.319963 A 0.23961946,0.23961946 0 0 1 85.265938,18.940732 C 87.63218,14.320569 87.602227,9.3709295 82.12842,7.1544495 A 1.1831211,1.1831211 0 0 0 80.503501,8.2402251 L 80.316298,20.550675 q -0.0075,0.546632 0.531656,0.606537 4.245757,0.449286 6.716833,-2.957803 0.03744,-0.04493 0,-0.104834 -0.04493,-0.08237 -0.104834,-0.149762 -0.03744,-0.04493 -0.08986,-0.01498 z"
       id="path168"
       style="fill:#999999;stroke-width:0.748811" /><path
       fill="#ffffff"
       d="m 164.01088,24.025157 q -0.35194,6.342428 0.23213,12.654903 0.0374,0.366917 -0.12729,0.703882 l -0.23962,0.509191 q -0.15725,0.321989 0.15725,0.486727 l 0.98094,0.539144 q 0.78625,0.426822 -0.0899,0.599049 c -2.516,0.479239 -6.28252,1.085775 -8.60383,-0.112322 q -0.27706,-0.142274 -0.56161,-0.04493 -0.61403,0.209667 -1.20559,0.419334 -1.98435,0.718859 -0.28455,-0.531655 0.77128,-0.569097 1.57251,-1.025871 0.35194,-0.202179 0.29203,-0.599049 -0.23962,-1.707288 -0.11232,-3.347184 c 0.629,-8.304312 0.24711,-16.975541 0.2546,-25.3247816 q 0,-2.8230167 -1.72227,-5.0544729 a 0.33696486,0.33696486 0 0 1 0.36692,-0.5316557 q 4.90471,1.5200859 9.83937,-0.044929 0.51668,-0.1647383 0.44929,0.3818935 -0.0974,0.756299 -0.71137,1.2505141 -0.35943,0.2920362 -0.37441,0.7562989 l -0.28454,12.4227717 q -0.007,0.479239 0.42682,0.666442 c 1.57999,0.681417 2.73316,0.08237 4.17836,0 q 1.9544,-0.11981 4.11097,0.531655 a 1.317907,1.3104189 7.5 0 0 1.69232,-1.295442 C 174.1348,14.140854 175.16816,7.124497 172.95168,3.6874554 a 0.28454811,0.28454811 0 0 1 0.33697,-0.4268221 q 5.03201,1.7821697 10.14638,0.2171551 0.77128,-0.2396195 0.32199,0.4343103 l -1.28046,1.9169556 q -0.20967,0.3219887 -0.20967,0.7113703 l 0.007,31.3452204 q 0,0.269572 0.23962,0.39687 0.71137,0.366917 1.29544,0.936013 0.56161,0.539144 -0.20967,0.389382 c -2.05174,-0.411846 -3.55685,0.913549 -5.45883,0.629001 q -2.36624,-0.351941 -4.73997,-0.696394 -1.02587,-0.142274 -0.0824,-0.576584 l 0.629,-0.284549 q 0.30701,-0.142274 0.30701,-0.486727 l -0.0524,-13.433665 q -0.007,-1.018383 -1.02587,-1.018383 h -8.86592 q -0.28455,0 -0.29953,0.284548 z"
       id="path170"
       style="fill:#999999;stroke-width:0.748811" /><path
       fill="#ffffff"
       d="m 104.45047,9.6105489 c 2.04425,-2.8379929 4.87476,-7.7726562 8.93331,-4.3356146 q 0.3145,0.2695719 0.60654,-0.022464 l 0.35943,-0.3594292 q 0.28455,-0.2845481 0.58407,-0.014976 c 10.17634,9.2328369 9.47995,20.2777959 9.83189,32.8503299 q 0.015,0.419334 0.39687,0.606537 l 0.90606,0.449287 q 0.63649,0.314501 -0.0599,0.479238 -4.7849,1.153169 -7.57047,0.748812 -3.1525,-0.464263 -4.38803,-0.39687 -0.1273,0.0075 -0.11981,-0.11981 0.007,-0.112321 0.007,-0.209668 0,-0.127298 0.11981,-0.172226 1.19061,-0.471751 2.08919,-1.377812 0.28454,-0.292036 0.20217,-0.688906 c -0.59904,-2.755624 0.80872,-5.533712 -3.28728,-5.863189 -5.09191,-0.419334 -9.10553,-0.71137 -7.37578,6.297499 q 0.0899,0.381895 0.41184,0.606538 0.56161,0.404358 0.98843,0.928525 0.55412,0.67393 -0.29203,0.434311 c -1.36284,-0.39687 -2.0143,0.307012 -3.20491,0.351941 q -4.343104,0.157249 -8.656255,-0.494215 a 0.15725027,0.14976216 32.1 0 1 -0.06739,-0.27706 c 3.092589,-2.044254 2.029278,-8.873409 2.201504,-12.295474 0.336965,-6.64944 2.89041,-15.612705 7.944881,-20.3002614 q 0.33696,-0.3145005 0.49421,0.1198097 c 0.13479,0.3968698 -1.3179,2.1266227 -1.43022,2.905386 q -0.11981,0.8386687 0.3744,0.1497621 z m 5.63106,-0.9360135 C 107.266,12.441054 103.82147,20.573139 106.99643,25.08098 q 0.21715,0.307013 0.56909,0.43431 c 2.02179,0.726347 7.97484,1.22805 8.14707,-2.164063 q 0.41184,-8.147061 -3.95373,-14.6317629 a 1.0333589,1.0333589 0 0 0 -1.67733,-0.044929 z"
       id="path172"
       style="fill:#999999;stroke-width:0.748811" /><path
       fill="#ffffff"
       d="m 209.71081,21.262045 2.73316,-0.67393 q 0.38189,-0.08986 0.26208,0.292037 -0.69639,2.261408 -2.99524,2.478563 -0.39687,0.03744 -0.50171,0.426823 -1.04084,3.684149 0.77877,6.926499 0.17222,0.307013 -0.18721,0.314501 l -6.02792,0.05242 q -0.48673,0 -0.23214,-0.404358 0.29204,-0.464263 0.7563,-0.584072 0.45678,-0.11981 0.54664,-0.576585 1.49762,-7.533037 0.015,-15.058585 -0.0899,-0.456775 0.37441,-0.39687 4.96461,0.629001 9.8843,-0.359429 0.45677,-0.08986 0.44929,0.374405 l -0.0225,2.950315 q -0.007,0.651465 -0.52417,0.262084 -2.59088,-1.976861 -5.7284,-0.524168 -0.32947,0.149762 -0.30701,0.509191 l 0.23962,3.631733 q 0.03,0.471751 0.48673,0.359429 z"
       id="path174"
       style="fill:#999999;stroke-width:0.748811" /><path
       fill="#ffffff"
       d="m 191.85916,16.836573 c 1.72975,-1.827098 3.99865,-3.392113 6.55209,-2.066718 q 0.33697,0.172227 0.71886,0.172227 h 1.30293 q 0.38189,0 0.63649,0.284548 6.1103,6.694369 0.10483,13.388737 c -2.84548,3.182446 -7.76517,2.837993 -10.61813,-0.142274 -3.71411,-3.87884 -3.13003,-10.468375 1.25051,-13.740678 0.21715,-0.15725 0.50919,-0.202179 0.73383,-0.112322 q 0.43431,0.179715 0.0599,0.464263 -0.82369,0.629001 -1.13819,1.50511 -0.3819,1.070799 0.39687,0.247107 z m 6.86659,10.453399 a 0.29203622,0.29952432 5.5 0 1 -0.36692,-0.449286 q 2.59089,-3.182446 1.3853,-6.761762 c -2.38121,-7.061286 -9.44999,-1.774682 -7.21853,4.365567 0.59156,1.624919 2.11913,2.740648 3.41458,3.908792 q 0.25459,0.232132 0.59156,0.247108 2.3887,0.134786 3.8414,-1.677336 0.0599,-0.08237 -0.015,-0.15725 l -0.14228,-0.142275 q -0.0973,-0.104833 -0.22464,-0.03744 z"
       id="path176"
       style="fill:#999999;stroke-width:0.748811" /><rect
       fill="#ffffff"
       x="123.18645"
       y="151.6302"
       transform="rotate(-44.3)"
       width="3.1599815"
       height="3.0551481"
       rx="0.53165567"
       id="rect178"
       style="fill:#999999;stroke-width:0.748811" /><path
       fill="#ffffff"
       d="m 58.66069,112.22009 q 3.092588,-4.08101 4.43296,-9.06809 c 0.09735,-0.34446 0.359429,-0.61403 0.643977,-0.78626 a 0.29203622,0.29203622 0 0 1 0.43431,0.30702 q -0.853644,4.61267 -0.943501,9.24781 -0.06739,3.07761 -3.197423,14.64674 -0.06739,0.27706 -0.359429,0.27706 L 8.8497948,126.64968 q -0.344453,-0.007 -0.55412,-0.29204 c -1.5275741,-2.12662 -5.0619611,0.1872 -7.2934173,0.42682 q -0.47923894,0.0524 -0.51667948,-0.42682 -0.0973454,-1.07829 0.52416758,-2.26141 c 3.8264232,-7.36081 4.7549486,-14.07015 5.0769373,-23.20564 Q 6.9103748,77.475272 6.6108504,54.05247 6.5734099,50.929929 5.8620396,48.458854 C 5.0009072,45.448634 4.1173104,41.42752 2.080545,38.829147 Q 1.7810207,38.439765 2.2527715,38.327443 c 1.93942,-0.456774 4.223293,0.112322 5.5711524,0.11981 q 17.8067211,0.112322 35.6134421,0.08237 c 5.526224,-0.0075 10.303637,0.172227 17.110327,-0.187202 q 0.381893,-0.02246 0.441798,0.359429 1.437717,9.831886 3.676661,19.514009 0.08986,0.389382 0.307013,0.726347 l 0.643977,1.033359 q 0.336965,0.531656 -0.292036,0.55412 c -0.179715,0.0075 -2.590885,-3.137517 -3.145005,-3.579316 -5.2267,-4.148412 -10.835293,-7.36081 -17.709376,-7.622894 -5.578641,-0.209667 -15.627682,-1.490133 -19.154581,4.350591 -2.755623,4.560258 -2.021789,10.483351 -1.924443,16.294123 0.05242,3.197422 1.42274,4.844806 4.657603,5.42139 q 7.300905,1.295443 14.714132,1.040847 0.359429,-0.01498 0.643978,0.194691 l 6.559582,4.754949 a 0.47923892,0.47923892 0 0 1 0,0.778763 c -2.710695,1.954396 -6.364892,4.912199 -9.682124,5.069449 -3.863863,0.179715 -7.705263,0.636489 -11.569127,0.823692 -3.991161,0.194691 -5.496271,2.658279 -5.885652,6.484702 q -0.748811,7.420718 0.733834,13.448638 1.392788,5.65352 7.652847,6.64195 10.28866,1.62492 19.813534,-0.6889 4.088507,-1.00341 7.345834,-4.24576 0.262083,-0.26208 0.569096,-0.0524 c 0.329477,0.21716 -0.71137,1.93942 -0.741323,2.40369 q -0.05991,0.86113 0.456775,0.17222 z"
       id="path180"
       style="fill:#999999;stroke-width:0.748811" /><path
       fill="#ffffff"
       d="m 268.96421,111.38891 q 0.82369,-1.40776 1.34037,-2.92036 0.10483,-0.29203 0.33696,-0.0824 c 1.61743,1.46018 -1.6998,15.87479 -2.23145,18.36833 a 0.41933405,0.42682216 6.4 0 1 -0.41185,0.33697 l -61.40249,-0.03 q -0.1872,0 -0.17971,-0.17971 0,-0.0974 0,-0.19469 0,-0.0449 0.0449,-0.0449 1.03336,-0.0749 1.83458,-1.41525 c 5.1668,-8.64128 5.99798,-15.18589 5.86319,-25.654261 q -0.0374,-2.860457 0.28455,-9.375111 c 0.23213,-4.74746 -0.28455,-10.176339 -0.29952,-14.1675 q -0.0374,-9.292743 -0.23962,-18.592973 -0.14228,-6.544606 -2.51601,-12.572533 c -0.69639,-1.759706 -2.14908,-3.736566 -3.01771,-5.675986 q -0.35942,-0.808716 0.35943,-0.292036 l 1.04085,0.74881 q 0.28455,0.194691 0.4418,-0.104833 l 0.14976,-0.27706 q 0.20967,-0.389382 0.65147,-0.366917 c 10.55074,0.703882 21.10897,0.614024 31.71962,1.063311 3.40709,0.142274 7.01636,-0.39687 10.61065,-0.299524 q 0.40436,0.01498 0.73384,0.247107 0.68141,0.494215 1.41525,-0.01498 0.32948,-0.232131 0.69639,-0.08237 c 2.8979,1.138192 7.53304,0 10.59568,-0.411846 a 0.53165567,0.53165567 0 0 1 0.59156,0.419334 l 2.59088,12.991867 a 0.40435784,0.40435784 0 0 1 -0.74132,0.292037 l -1.64738,-2.635814 a 0.27706,0.27706 0 0 0 -0.5092,0.112321 q -0.0824,0.688906 0.41934,1.190609 0.23213,0.224644 0.38189,0.51668 l 3.82642,7.450667 a 0.20217892,0.20217892 0 0 1 -0.29952,0.254596 c -4.05107,-3.092589 -8.76857,-7.113703 -13.71073,-8.46905 q -8.43909,-2.306337 -17.1253,-1.452693 c -6.16271,0.606537 -9.45748,3.392113 -9.98913,9.629707 -0.47176,5.601105 -1.83459,16.024551 5.92309,16.930612 q 7.01636,0.816204 14.07015,0.876109 0.26958,0 0.50171,0.15725 l 6.38735,4.477889 a 0.23961946,0.24710757 44.6 0 1 0,0.39687 l -6.64944,4.777412 q -0.30701,0.217156 -0.67393,0.23962 -9.58477,0.651465 -14.50446,1.175633 -4.35059,0.464263 -4.8523,4.897223 -0.95099,8.416633 1.10076,15.665113 c 2.4561,8.66374 18.44321,6.88158 24.53104,5.84073 q 7.42071,-1.26549 11.75633,-7.38328 a 0.38189351,0.38189351 0 0 1 0.6889,0.17223 l 0.23962,1.96188 q 0.0449,0.36692 -0.26957,0.56161 -0.39687,0.2546 -0.46426,0.71137 -0.23962,1.69232 0.60654,0.23213 z"
       id="path182"
       style="fill:#999999;stroke-width:0.748811" /><path
       fill="#ffffff"
       d="m 138.04212,173.87718 h -0.74881 c -3.16747,-9.90677 -4.14092,-19.94832 -4.81485,-30.51404 q -0.0225,-0.33697 0.39687,-1.01839 0.1872,-0.3145 0.16474,-0.6889 c -0.24711,-4.39552 -1.24303,-9.00071 -1.43023,-13.02182 -0.93601,-20.42756 -0.57659,-40.877585 -1.52009,-61.222775 q -0.27706,-5.878165 -1.10824,-8.648765 -3.10007,-10.258708 -14.13006,-13.830535 -0.85364,-0.27706 -1.48264,-1.198098 -0.29204,-0.43431 0.21715,-0.344453 2.43364,0.426823 4.82983,0.771276 c 1.4527,0.209667 2.93534,0.793739 4.69505,0.396869 7.50308,-1.6998 16.33905,-1.445205 23.96943,-0.823692 2.67325,0.217156 6.09532,1.654872 9.31521,0.906062 q 2.3288,-0.546632 3.72159,-0.546632 0.40435,0 0.7563,-0.194691 1.28795,-0.71137 2.79306,-0.449287 0.33696,0.05242 0.23962,0.381894 -0.0674,0.262084 -0.54663,0.27706 -0.24711,0.01498 -0.47924,-0.05242 -1.57999,-0.441798 -2.44113,1.10824 -0.1872,0.336965 -0.53914,0.486727 c -3.53439,1.520086 -8.07967,3.474482 -10.22875,6.761762 q -2.74814,4.200828 -3.07762,8.776062 c -2.44861,33.449379 0.14977,67.430416 -4.94964,100.333166 q -0.92852,6.02044 -3.60178,12.35538 z"
       id="path184"
       style="fill:#999999;stroke-width:0.748811" /><path
       fill="#ffffff"
       d="m 115.69761,122.48629 a 0.44179838,0.44928648 56.9 0 0 -0.17972,0.84616 l 6.91902,3.31723 q 0.15725,0.0749 0.11232,0.23962 -0.0299,0.0973 -0.0599,0.1872 -0.0749,0.20967 -0.26957,0.11232 -2.44861,-1.15317 -3.60178,-0.89108 c -6.16271,1.39279 -11.81623,0.88359 -18.0089,0.59156 q -0.816203,-0.0449 -0.0749,-0.3819 c 0.7563,-0.35194 4.75495,-1.84956 4.56026,-2.65827 q -0.0599,-0.23214 -0.30701,-0.20967 l -1.61744,0.19469 q -0.66644,0.0749 -0.46426,-0.56161 c 0.67393,-2.12662 1.49762,-4.17836 1.27298,-6.4248 q -0.85364,-8.69369 -5.159307,-16.21924 a 0.49421513,0.49421513 0 0 0 -0.786251,-0.0973 l -4.066043,4.22329 q -0.239619,0.24711 -0.47175,0 l -4.088507,-4.26822 a 0.48672703,0.47923892 38.2 0 0 -0.763788,0.0899 c -2.583397,4.4704 -4.919687,10.91017 -5.286604,15.50787 q -0.479239,6.02792 4.095995,10.74543 0.179715,0.17972 -0.06739,0.23213 -0.486727,0.10484 -0.898573,-0.13478 -0.3145,-0.19469 -0.688906,-0.14976 -8.132085,1.04833 -16.26417,-0.10484 -0.307013,-0.0374 -0.336965,-0.34445 l -0.172227,-1.78217 q -0.03744,-0.41185 0.344453,-0.57658 1.033359,-0.44929 1.594967,-1.39279 0.404358,-0.68142 -0.329476,-0.3819 l -0.681418,0.27706 q -0.307013,0.11981 -0.629001,0.18721 -1.295443,0.26957 -1.0708,-0.63649 c 1.115728,-4.51533 2.426147,-6.69437 3.534387,-10.16137 1.62492,-5.09191 3.826423,-9.80942 5.855701,-14.74408 C 80.278858,90.691783 78.167211,86.004228 75.56135,79.489574 73.045345,73.207051 71.540236,66.707373 69.675697,60.2676 68.844517,57.414631 67.451729,56.066771 66.897609,53.992566 q -0.142274,-0.509192 0.381893,-0.434311 c 0.995918,0.134786 1.812122,0.576585 2.800553,0.479239 q 4.717508,-0.471751 9.442504,-0.11981 c 3.44453,0.254596 5.66101,-0.329476 8.648765,-1.550038 a 0.21715513,0.22464324 11.2 0 1 0.239619,0.359429 c -8.03474,8.124598 -4.305662,20.180452 1.048335,28.552156 a 0.56909621,0.57658432 44.3 0 0 0.973454,-0.01498 q 0.83118,-1.340371 2.33629,-0.778763 0.576584,0.217155 0.576584,-0.39687 v -1.160657 q 0,-0.501703 0.449287,-0.27706 2.283873,1.115729 3.803959,3.062637 0.254595,0.329476 0.494215,-0.02246 c 5.286603,-7.974835 9.202883,-19.424152 2.665763,-27.975571 a 0.50170324,0.50170324 0 0 1 0.66644,-0.726347 c 1.90947,1.198097 3.35468,1.647384 5.74338,1.145681 5.15931,-1.0708 9.26279,1.482645 13.98779,-0.83118 a 0.59156054,0.59156054 0 0 1 0.68891,0.936013 c -2.3962,2.530981 -3.45951,4.882247 -4.38055,8.55142 q -3.10007,12.355378 -8.15455,24.074267 c -2.08169,4.822342 0.28455,10.850269 3.10757,16.818289 q 2.79306,5.90812 5.86319,16.27166 0.29203,0.98094 1.10075,2.26141 0.22464,0.33696 0.0299,0.69639 c -0.71886,1.35535 -2.7706,-0.45677 -3.7141,-0.42682 z"
       id="path186"
       style="fill:#999999;stroke-width:0.748811" /><path
       fill="#ffffff"
       d="m 173.85026,54.471804 1.40776,-0.853644 a 0.3669173,0.3669173 0 0 1 0.52417,0.456775 c -3.09259,7.20356 -3.87135,13.074236 -3.75903,21.603192 q 0.20218,14.886358 0.14976,29.772713 c -0.015,4.30567 0.85364,9.35265 5.30907,11.06743 6.28252,2.42615 16.17431,-1.22056 22.19475,-2.93534 q 0.629,-0.17971 1.65487,0.48673 0.39687,0.25459 0.74881,-0.0524 l 2.59838,-2.22397 q 0.65146,-0.56161 0.56909,0.29953 -0.66644,7.18858 -2.30633,14.21991 -0.0899,0.40436 -0.50171,0.41185 c -15.22332,0.53166 -30.40172,0.43431 -45.63253,0.92852 q -1.43023,0.0449 -2.68823,-0.53165 -0.36692,-0.16474 -0.24711,-0.54663 c 1.81961,-5.99798 3.9687,-9.35265 4.05107,-16.76588 q 0.20967,-19.506518 0.1872,-39.01304 c -0.007,-6.499678 -0.77127,-10.917662 -3.60178,-16.22673 a 0.47175081,0.4642627 68.6 0 1 0.28455,-0.666442 q 0.50919,-0.142274 0.90606,0.06739 0.30701,0.164739 0.65147,0.134786 c 3.61675,-0.3145 13.95034,-1.400276 16.81829,0.366917 q 0.33696,0.209667 0.68142,0 z"
       id="path188"
       style="fill:#999999;stroke-width:0.748811" /></g><g
     id="g1236"
     transform="matrix(0.19204432,0,0,0.19204432,160.84765,159.89507)"><g
       id="g1368"
       transform="matrix(0.58339036,0,0,0.58339036,-745.54452,-347.46509)"><g
         stroke-width="2"
         fill="none"
         stroke-linecap="butt"
         id="g977"><path
           stroke="#808080"
           vector-effect="non-scaling-stroke"
           d="m 597.62,310.89 a 0.37,0.36 -28.9 0 1 0.17,-0.58 c 16.79,-5.75 38,-15.96 46.65,-32.47 6.05,-11.55 31.13,-3.74 24.89,-23.15 q -0.17,-0.54 0.35,-0.78 l 4.46,-2.03 q 0.48,-0.22 0.82,0.18 c 2.07,2.4 5.65,2.75 7.67,0.35 2.57,-3.05 2.44,-11.76 2.2,-15.58 -0.27,-4.46 1.37,-7.58 -1.15,-12.04 q -0.25,-0.44 -0.21,-0.94 c 0.38,-5.02 1.32,-11.02 -0.56,-15.61 q -2.75,-6.73 -9.15,-10.86 -0.43,-0.28 -0.41,-0.79 c 0.46,-12.64 -8.73,-18.75 -19.43,-22.37 q -0.52,-0.18 -0.42,-0.72 c 1.6,-8.5 -4.69,-15.04 -11.17,-19.86 -13.48,-10.04 -27.24,-15.45 -43,-20.78 q -0.48,-0.17 -0.58,-0.66 C 596.02,117.62 592.86,102.93 587.02,89.23 568.21,45.07 513.86,35.62 471.96,48.2 q -23.05,6.92 -49.17,19.04 -0.49,0.22 -0.85,-0.18 C 406.11,49.66 386.32,36.67 363.64,30.38 q -16.6,-4.6 -33.7,-6.81 c -21.65,-2.8 -43.37,0.76 -62.64,10.73 -46.4,24.02 -81.99,65.5 -96.86,116.85 q -0.17,0.57 -0.76,0.66 -2.34,0.36 -7.66,1.24 c -27.63,4.57 -47.37,31.37 -59.05,54.65 -24.85,49.55 -41.45,103.14 -47.28,158.38 -3.06,29.05 -1.29,62.23 18.6,85.33 q 0.36,0.42 0.25,0.96 -1.39,6.75 -0.57,13.62 0.1,0.8 -0.7,0.74 c -16.96,-1.17 -25.68,7.47 -34.7,21.31 q -8.33,12.77 -12.24,27.66 c -4.08,15.54 3.47,23.58 15.67,31.54 q 18.95,12.36 29.11,18.38 c 54.34,32.19 115.29,44.4 177.13,52.47 52.63,6.87 105.84,10.87 158.94,9.24 34.94,-1.08 67.24,-6.71 95.19,-28.96 q 0.39,-0.3 0.47,-0.78 c 3.81,-22.96 0.17,-48.03 -23.18,-58.43 -4.24,-1.89 -9.63,-3.17 -14.44,-4.35 q -0.7,-0.17 -0.7,-0.89 l 0.01,-4.06 q 0,-0.68 0.66,-0.82 36.57,-7.7 70.07,-23.85 c 23.78,-11.46 43.55,-28.04 59.91,-47.02 q 7.28,-8.45 13.56,-14.86 c 14.97,-15.26 27.18,-31.11 37.93,-49.64 14.42,-24.9 2.29,-35.22 -20.56,-42.34 q -0.49,-0.15 -0.61,-0.66 c -3.62,-16.28 -17.39,-26.94 -27.87,-39.78"
           id="path837" /><path
           stroke="#304324"
           vector-effect="non-scaling-stroke"
           d="m 122.31,479.57 c 39.6,18.14 80.66,26.93 124.44,34.45 q 53.47,9.19 99.99,14.85 c 31.03,3.77 57.93,5.79 87.32,2.19 30.42,-3.72 58.81,-11.53 86.86,-22.78 29.34,-11.78 53.18,-29.64 73.37,-54.64 q 0.09,-0.1 -0.03,-0.04 -17.01,8.32 -37.45,11.97 c -50.48,9.02 -100.55,6.69 -150.5,-0.59 -27.48,-4.01 -60.83,-14.52 -81.33,-34.21 Q 307.52,414 292.13,395.36 q -9.77,-11.83 -13.4,-23.81 c -5.11,-16.85 5.49,-28.81 21.27,-32.29 q 13.02,-2.87 29.75,-3.53 30.12,-1.19 60.25,-1.69 107,-1.77 213,12.73 5.09,0.7 18.27,3.38 0.56,0.12 0.43,-0.44 c -3.65,-15.31 -17.64,-24.96 -27.2,-37.86 q -0.29,-0.4 -0.77,-0.25 c -19.47,6.27 -38.72,7.09 -59.25,4.82 q -1.5,-0.17 -2.71,-0.19 a 0.44,0.44 0 0 0 -0.32,0.76 l 5.93,5.7 a 2.11,2.07 22.4 0 1 0.64,1.5 c -0.01,2.69 -2.11,2.03 -3.17,0.73 -8.45,-10.25 -19.81,-12.7 -31.11,-17.41 -2.46,-1.03 -13.56,-6.75 -10.87,-10.44 a 0.84,0.84 0 0 1 1.3,-0.07 q 4.85,5.3 11.5,7.88 c 7.31,2.84 15.43,6.68 23.21,7.58 q 16.78,1.94 33.63,1.37 c 22.69,-0.77 44.05,-8.58 63.29,-20.8 q 9.61,-6.1 14.94,-15.34 c 4.97,-8.6 10.83,-8.92 19.57,-11.43 5.35,-1.54 8.1,-4.64 5.74,-10.46 q -0.17,-0.41 -0.59,-0.28 -16.88,5.21 -34.45,7.38 c -1.46,0.18 -2.26,-0.52 -1.98,-1.99 q 0.1,-0.51 0.61,-0.63 c 9.86,-2.28 19.74,-3.87 29.59,-6.37 q 10.14,-2.57 14.27,-5.41 3.49,-2.39 1.71,-7.28 -0.16,-0.43 -0.53,-0.72 -7.96,-6.19 -14.74,-13.65 -0.35,-0.39 -0.87,-0.43 c -17.12,-1.28 -31.68,-0.97 -48.48,0.17 -23.92,1.62 -48.27,0.04 -72.08,-2.41 -7.31,-0.76 -14.6,-2.5 -18.85,-9 a 1.52,1.52 0 0 1 0.72,-2.25 c 17.26,-6.74 33.3,-8.03 51.87,-8.14 q 28.28,-0.16 56.56,-0.07 21.41,0.07 41.31,7.76 4.93,1.91 9.94,3.8 0.38,0.15 0.43,-0.26 c 1.5,-11.18 -9.66,-18.07 -18.87,-21.82 -42.99,-17.48 -88.04,-25.53 -134.72,-16.89 -8.41,1.56 -23.15,4.46 -34.56,7.13 q -1.33,0.31 -1.69,-1.01 -0.48,-1.79 1.05,-2.14 c 30.79,-7.17 60.91,-12.7 92.68,-9.97 20.3,1.74 39.79,6.53 59.7,12.85 q 14.34,4.54 25.1,9.97 0.4,0.2 0.44,-0.25 c 0.56,-7.47 -4.51,-11.03 -10.44,-13.82 q -18.6,-8.75 -43.92,-14.83 -54.77,-13.14 -106.78,2.29 -15.7,4.66 -31.13,10.33 -0.37,0.13 -0.44,0.51 l -1.46,7.49 q -0.14,0.7 -0.75,0.32 c -12.84,-7.95 -24.22,-15.35 -38.57,-20.55 -12.28,-4.45 -23.45,-5.89 -36.63,-6.38 -15.74,-0.59 -30.41,-0.13 -45.02,4.24 -21.77,6.52 -40.15,20.92 -61.54,27.71 -12.44,3.94 -24.66,0.91 -37.44,0.34 -4,-0.18 -11.57,0.61 -11,5.97 0.43,4.08 6.4,7.4 10.53,10.27 q 0.6,0.42 0.14,1 l -0.84,1.05 q -0.36,0.46 -0.89,0.19 c -4.61,-2.38 -10.45,-6.24 -11.79,-11.28 -2.74,-10.28 11.2,-10.98 17.29,-10.38 16.54,1.62 28.39,3.15 43.31,-4.36 q 21.03,-10.58 35.62,-17.7 c 22.27,-10.88 47.82,-12.31 72.2,-9.93 22.76,2.23 44.14,11.48 62.51,24.89 a 0.48,0.48 0 0 0 0.76,-0.33 c 2.8,-21.53 -16.72,-28.71 -33.6,-31.42 q -24.44,-3.93 -34.07,-4.77 -26.87,-2.33 -53.2,3.4 c -17.56,3.82 -35.32,12.37 -47.46,19.59 q -18.82,11.2 -40.7,9.56 c -1.58,-0.12 -2,-1 -1.44,-2.44 q 0.16,-0.41 0.61,-0.47 c 7.7,-0.93 14.75,-0.39 22.52,-2.17"
           id="path839" /><path
           stroke="#26351d"
           vector-effect="non-scaling-stroke"
           d="m 286,172.21 q 7.53,-2 13.24,-4.99 c 12.32,-6.45 22.43,-12.3 34.33,-16.63 q 6.55,-2.38 13.18,-4.55"
           id="path841" /><path
           stroke="#304324"
           vector-effect="non-scaling-stroke"
           d="m 346.75,146.04 c 37.49,-8.92 72.96,-5.37 109.12,3.95 a 0.34,0.33 -10.7 0 0 0.36,-0.52 C 445.64,135.04 434.4,122.13 419.18,112.32 q -14.36,-9.26 -34.36,-14.88 c -34.22,-9.6 -67.57,-12.2 -99.57,3.33 q -12.43,6.04 -24.34,13.1 c -1.36,0.81 -2.11,0.26 -2.46,-1.14 q -0.19,-0.78 0.46,-1.25 l 4.92,-3.53"
           id="path843" /><path
           stroke="#26351d"
           vector-effect="non-scaling-stroke"
           d="m 263.83,107.95 q 6.9,-2.89 13.44,-6.34 C 296.3,91.56 314.76,86.34 336.5,86.19"
           id="path845" /><path
           stroke="#304324"
           vector-effect="non-scaling-stroke"
           d="m 336.5,86.19 q 4.85,-0.06 12.25,0.82 33.27,3.92 62.76,17.48 c 11.04,5.07 18.5,12.37 27.9,19.12 a 0.86,0.85 14.6 0 0 1.35,-0.79 C 438.38,102.33 432.66,82.86 418.3,67.7 403.17,51.73 384.52,39.44 363,33.53 q -24.09,-6.61 -46.49,-7.8"
           id="path847" /><path
           stroke="#26351d"
           vector-effect="non-scaling-stroke"
           d="m 316.51,25.73 q -11.57,0.29 -15.73,1.02 c -33.29,5.86 -62.67,26.75 -85.34,50.95 -32.35,34.54 -46.15,78.75 -55.16,124.07 a 1.12,1.11 12.8 0 1 -1.37,0.86 q -1.98,-0.52 -1.75,-1.6 4.87,-22.46 11.45,-44.64 a 0.8,0.79 -84.2 0 0 -0.83,-1.02 c -28.84,2.58 -48.8,27.97 -61.12,52.06 -21.1,41.3 -36.52,87.3 -44.41,132.87 -3.82,22.09 -5.63,45.11 -3.01,67.44 4.41,37.49 30.12,58.7 63.07,71.83"
           id="path849" /><path
           stroke="#567841"
           vector-effect="non-scaling-stroke"
           d="m 316.51,25.73 c -16.89,4.75 -28.69,15.89 -38.71,28.07 -25.01,30.38 -46.88,63.99 -65.35,99.64 -22.32,43.06 -48.29,86.46 -68.66,128.11 q -11.85,24.23 -18.82,46.69 c -10.79,34.79 -11.58,73.95 -7.08,109.32 q 3.29,25.82 4.42,42.01"
           id="path851" /><path
           stroke="#567841"
           vector-effect="non-scaling-stroke"
           d="m 336.5,86.19 q -9.54,-2.29 -19.3,-1.25 c -1.82,0.2 -3.79,1.02 -5.95,1.32 q -4.31,0.6 -8.89,2.39 c -1.85,0.72 -3.89,0.84 -5.67,1.55 q -17.47,6.97 -32.86,17.75"
           id="path853" /><path
           stroke="#567841"
           vector-effect="non-scaling-stroke"
           d="m 346.75,146.04 q -8.79,-0.03 -16.83,3.65 c -13.13,6.01 -25.86,14.03 -38.14,18.78 -1.61,0.63 -2.68,1.75 -5.06,1.58 q -0.62,-0.04 -0.65,0.58 l -0.07,1.58"
           id="path855" /><path
           stroke="#304324"
           vector-effect="non-scaling-stroke"
           d="M 595.1,131.06 C 590.87,107.73 583.61,75.98 561.68,62.04 516.45,33.29 469.33,49.05 425.19,69.62 q -0.5,0.23 -0.17,0.66 c 11.59,15.16 16.3,32.98 19.08,51.79 q 0.09,0.55 0.63,0.43 c 49.55,-11.14 101.63,-6.49 149.93,8.96 q 0.55,0.17 0.44,-0.4"
           id="path857" /><path
           stroke="#304324"
           vector-effect="non-scaling-stroke"
           d="m 467.97,157.29 c 5.39,4.42 8.06,10.06 8.8,16.98 q 0.05,0.47 0.48,0.31 6.2,-2.22 23.24,-7.83 c 35.14,-11.58 71.17,-13.92 107.08,-6.4 q 21.5,4.5 42.29,11.97 a 0.68,0.68 0 0 0 0.91,-0.66 c -0.17,-5.54 -2.83,-9.01 -7.24,-12.71 -19.78,-16.64 -44.01,-23.61 -69.75,-30.09 q -40.46,-10.19 -82.03,-9.04 c -16.48,0.45 -33.03,2.96 -49.25,6.33 a 0.53,0.53 0 0 0 -0.28,0.88 q 9.89,10.76 18.33,23.05 c 2.06,3.01 4.68,4.96 7.42,7.21"
           id="path859" /><path
           stroke="#808080"
           vector-effect="non-scaling-stroke"
           d="m 625.22,221.6 c -3.6,-4.4 -3.17,-9.16 1.04,-13 q 0.6,-0.55 -0.22,-0.56 -31.15,-0.17 -62.29,0.32 c -14.53,0.23 -26.33,1.54 -39.61,6.9 q -0.52,0.21 -0.07,0.54 c 5.61,4.11 13.15,4.9 20.19,5.61 q 40.71,4.14 80.73,0.74 0.64,-0.05 0.23,-0.55"
           id="path861" /><path
           stroke="#808080"
           vector-effect="non-scaling-stroke"
           d="m 657.78,222.33 c 3.94,-7.07 16.57,-3.23 22.05,-0.43 q 0.46,0.23 0.62,-0.25 0.41,-1.26 -0.77,-1.84 -19.34,-9.51 -41.71,-11.25 -0.78,-0.06 -0.23,0.5 5.82,5.92 0.7,12.49 -0.42,0.53 0.26,0.56 l 18.42,0.6 q 0.44,0.02 0.66,-0.38"
           id="path863" /><path
           stroke="#33565a"
           vector-effect="non-scaling-stroke"
           d="m 676.42,238.84 c 4.47,3.52 -1.99,12.71 2.67,12.69 q 0.51,0 0.88,-0.36 c 3.28,-3.2 2.52,-17.31 2.45,-22.03 -0.03,-1.82 -0.88,-3.08 -2.3,-4.01 q -8.31,-5.44 -18.15,-3.76 a 1.67,1.67 0 0 0 -0.99,2.74 q 6.91,8.03 15.44,14.73"
           id="path865" /><path
           stroke="#4d3020"
           vector-effect="non-scaling-stroke"
           d="m 563.79,460.63 c 23.64,-5.33 40.16,-14.45 55.87,-33.48 q 10.69,-12.95 19.46,-27.22 c 5.07,-8.24 13.8,-21.87 9.18,-31.42 -7.02,-14.49 -46.43,-19.17 -59.71,-20.78 -86.33,-10.49 -172.56,-12.5 -259.41,-8.84 -11.85,0.5 -30.72,2.26 -40.11,8.95 -19.91,14.2 2.08,41.64 12.66,53.44 q 15.4,17.17 26.43,27.55 c 12.08,11.39 29.04,19.53 44.57,24.93 10.83,3.77 23.45,6.29 35.01,8.04 q 49.36,7.47 100.32,5.9 28.26,-0.87 55.73,-7.07"
           id="path867" /><path
           stroke="#304324"
           vector-effect="non-scaling-stroke"
           d="m 124.71,498 c 44.84,25.43 95.69,36.14 146.53,42.83 q 45.06,5.93 90.45,7.81 c 23.95,0.99 47.27,1.08 70.55,-2.94 q 8.87,-1.54 20.51,-6.49"
           id="path869" /><path
           stroke="#26351d"
           vector-effect="non-scaling-stroke"
           d="m 452.75,539.21 8.34,-4.32 q 0.41,-0.21 0.41,-0.66 v -3.97 q 0,-0.54 -0.53,-0.43 -40.11,8.63 -81.03,5.33 c -51.11,-4.13 -102.46,-12.23 -152.87,-21.53 -33.26,-6.15 -64.28,-14.12 -95.52,-26.49"
           id="path871" /><path
           stroke="#304324"
           vector-effect="non-scaling-stroke"
           d="M 131.55,487.14 126.04,485"
           id="path873" /><path
           stroke="#26351d"
           vector-effect="non-scaling-stroke"
           d="M 126.04,485 C 109.06,477.17 92.46,469.03 78.96,456.17 q -1.62,-1.54 -1.81,0.69 -0.42,5.05 0.15,10.12 a 1.52,1.48 -76.1 0 0 0.61,1.04 c 14.83,10.64 30.57,21.89 46.8,29.98"
           id="path875" /><path
           stroke="#567841"
           vector-effect="non-scaling-stroke"
           d="m 126.04,485 c -2.4,4.74 1.03,8.92 -1.33,13"
           id="path877" /><path
           stroke="#567841"
           vector-effect="non-scaling-stroke"
           d="m 131.55,487.14 q 1.29,2.22 4.98,3.82 8.8,3.83 17.66,7.56 c 3.86,1.63 8.52,2.03 12.67,4.28 q 0.46,0.25 0.97,0.18 1.09,-0.14 1.62,0.73 0.27,0.44 0.78,0.54 6.8,1.28 13.27,3.6 c 11.68,4.18 22.61,6.05 36.27,9.42 33.81,8.32 68.55,14.14 103,19.08 q 30.22,4.34 60.72,5.65 c 20.51,0.88 44.56,-1.95 62.8,-3.87 1.52,-0.16 3.08,-0.83 4.68,-1.16 q 0.52,-0.1 0.77,0.37 l 1.01,1.87"
           id="path879" /><path
           stroke="#202c51"
           vector-effect="non-scaling-stroke"
           d="m 97.19,576.09 c 40.82,18.95 84.29,28.97 128.31,35.64 q 52.94,8.03 107.93,11.48 c 36.98,2.32 75.62,3.09 112.31,-2.73 20.2,-3.21 37.84,-11.29 53.76,-24.09 a 1.53,1.51 72.7 0 0 0.55,-1.06 c 0.47,-6.49 1.23,-13.28 0.5,-19.66 -2.5,-21.7 -12.79,-33.71 -34.8,-37.44 q -0.49,-0.08 -0.86,-0.4 -1.16,-1 -2.37,-0.33 c -21.49,11.76 -42.28,14.23 -67.46,14.57 -53.34,0.72 -107.88,-4.74 -160.4,-13.84 C 198.71,532 163.44,521.65 131.75,505.21"
           id="path881" /><path
           stroke="#19244d"
           vector-effect="non-scaling-stroke"
           d="M 131.75,505.21 Q 103.23,490.27 77.27,471.25 C 73,468.12 63.6,469.92 59.18,471.77 43.97,478.12 32.54,502.85 29.06,517.48 q -3.24,13.59 6.85,21.57 c 5.07,4.02 12.57,8.91 19.63,13.26 7.35,4.52 14.65,9.58 21.88,13.51 q 9.78,5.32 19.77,10.27"
           id="path883" /><path
           stroke="#394f9e"
           vector-effect="non-scaling-stroke"
           d="m 131.75,505.21 c -2.64,-0.03 -5.03,-1.5 -7.4,-1.08 -4.08,0.72 -5.84,2.76 -9.51,6.22 q -21.91,20.66 -25.12,51.18 -0.37,3.55 -1.01,7.07 a 1.19,1.19 0 0 0 0.71,1.31 q 4.79,2.01 7.77,6.18"
           id="path885" /><path
           stroke="#304324"
           vector-effect="non-scaling-stroke"
           d="m 364.93,130.56 c 15.47,-0.86 29.68,-0.81 45.21,4.87 q 8.04,2.94 16.01,6.03 1.94,0.75 2.09,-1.26 0.07,-0.81 -0.67,-1.16 c -9.51,-4.47 -19.78,-8.57 -30.07,-10.58 -12.62,-2.46 -26.17,-1.53 -39.16,-1.04 q -18.24,0.69 -36.36,-1.71 -1.69,-0.22 -3.45,-0.24 -0.74,-0.01 -0.76,0.73 l -0.03,1.21 a 0.72,0.72 0 0 0 0.6,0.72 q 23.21,3.75 46.59,2.43"
           id="path887" /><path
           stroke="#304324"
           vector-effect="non-scaling-stroke"
           d="m 298.2,217.25 q -8.33,6.86 -12.41,12.28 c -3.04,4.04 -1.43,9.58 3.76,10.26 4.4,0.58 9.61,-3.46 14.29,-5.98 6.77,-3.65 13.13,-5.51 20.44,-6.55 11.49,-1.62 30.77,3.21 37.82,-8.03 a 1.68,1.67 -71.6 0 1 1.55,-0.78 c 23.78,2.01 47.28,6.54 71.52,6.59 13.87,0.02 25.09,-1.91 37.29,-6.8 a 1.65,1.64 -39.4 0 0 0.29,-2.9 q -22.49,-14.68 -49.26,-17.42 -30.84,-3.15 -61.76,-1.71 c -25.64,1.19 -48.67,3.51 -71.83,15.72 a 1.52,1.52 0 0 0 0.13,2.75 q 3.8,1.58 7.94,1.88 0.99,0.07 0.23,0.69"
           id="path889" /><path
           stroke="#304324"
           vector-effect="non-scaling-stroke"
           d="m 268.89,202.82 q -1.16,-0.86 -2.43,-1.43 -0.57,-0.26 -0.96,0.23 l -0.95,1.16 q -0.47,0.58 0.09,1.07 6.39,5.6 14.9,6.37 0.59,0.06 0.76,-0.51 l 0.4,-1.39 a 0.81,0.81 0 0 0 -0.67,-1.02 q -6.21,-0.8 -11.14,-4.48"
           id="path891" /><path
           stroke="#304324"
           vector-effect="non-scaling-stroke"
           d="m 495.88,211.54 1.13,2.14 a 0.22,0.22 0 0 0 0.3,0.09 l 2.81,-1.49 a 5.84,1.04 -27.9 0 0 4.68,-3.65 l -0.37,-0.69 a 5.84,1.04 -27.9 0 0 -5.65,1.82 l -2.81,1.49 a 0.22,0.22 0 0 0 -0.09,0.29"
           id="path893" /><path
           stroke="#304324"
           vector-effect="non-scaling-stroke"
           d="m 499.02,219.73 c 3.28,-4 6.26,-5.41 11.37,-6.11 q 0.52,-0.07 0.74,-0.53 c 0.5,-1.08 -0.32,-1.64 -1.34,-1.64 q -7.71,-0.01 -12.02,6.22 c -0.57,0.82 -0.6,1.82 0.38,2.26 q 0.51,0.24 0.87,-0.2"
           id="path895" /><path
           stroke="#304324"
           vector-effect="non-scaling-stroke"
           d="m 271.14,217.64 c -5.05,2.03 -4.09,6.66 -11.23,4.93 q -0.86,-0.2 -0.89,0.67 l -0.03,0.98 q -0.02,0.52 0.43,0.79 c 3.69,2.26 6.66,1.41 9.4,-1.72 q 2.99,-3.4 7.8,-3.4 0.49,0 0.78,-0.39 0.97,-1.26 0.08,-2.43 -0.36,-0.48 -0.95,-0.48 -2.81,0.01 -5.39,1.05"
           id="path897" /><path
           stroke="#304324"
           vector-effect="non-scaling-stroke"
           d="m 619.75,243.04 c -8.77,-0.29 -17.59,-0.49 -26.07,-2.27 -8.44,-1.77 -16.7,-4.6 -25,-5.43 -11.09,-1.12 -28.62,-1.18 -42.42,-6.5 q -0.61,-0.23 -1.01,0.29 l -0.69,0.92 q -0.38,0.49 0.06,0.94 c 2.91,2.97 12.52,4.63 16.64,5.24 8.93,1.32 23.48,1.44 34.69,3.68 8.23,1.64 16.62,4.57 24.49,5.36 q 12.09,1.2 24.25,0.6 0.56,-0.03 0.56,-0.59 v -1.96 q 0,-0.66 -0.65,-0.56 -2.49,0.36 -4.85,0.28"
           id="path899" /><path
           stroke="#304324"
           vector-effect="non-scaling-stroke"
           d="m 381.9,241.97 c 14.2,-3.65 27.96,-2.54 40.82,-2.7 q 0.73,-0.01 0.78,-0.74 l 0.11,-1.37 q 0.05,-0.72 -0.66,-0.8 -16.02,-1.61 -31.94,0.27 c -5.16,0.61 -10.86,2.56 -15.76,3.64 -13.43,2.98 -30.63,-1.7 -44.03,-5.41 q -2.13,-0.58 -2.58,1.33 a 0.95,0.94 -74.8 0 0 0.63,1.12 q 14.46,4.59 29.47,6.98 c 7.62,1.22 14.36,-0.06 23.16,-2.32"
           id="path901" /><path
           stroke="#304324"
           vector-effect="non-scaling-stroke"
           d="m 380.7,255.59 c 4.82,-2.1 8.14,-2.36 12.79,-2.12 q 12.13,0.64 24.27,1.22 c 13.85,0.67 25.07,-3.94 36.02,-11.13 q 1.47,-0.96 0.45,-2.49 a 1.53,1.53 0 0 0 -2.14,-0.41 c -9.87,6.75 -22.32,11.75 -34.59,10.85 q -21.63,-1.59 -28,-1.63 -4.88,-0.03 -10.72,3.33 -0.42,0.23 -0.38,0.71 0.09,1.26 1.45,1.71 0.43,0.14 0.85,-0.04"
           id="path903" /><path
           stroke="#304324"
           vector-effect="non-scaling-stroke"
           d="m 485.79,252.05 c 38.74,14.76 82.78,18.59 123.68,13.01 q 1.1,-0.15 1.05,-1.32 a 1.2,1.2 0 0 0 -1.03,-1.15 q -1.97,-0.29 -4.32,-0.06 c -40.16,3.97 -80.63,0.48 -118.88,-13.7 q -0.45,-0.16 -0.63,-0.6 l -1.87,-4.55 q -0.28,-0.68 -0.97,-0.43 l -1.29,0.47 q -0.45,0.16 -0.35,0.64 c 0.48,2.2 1.46,4.48 1.01,6.72 -1.38,6.85 -12.01,14.4 -17.51,16.62 q -9.98,4.03 -19.94,5.05 c -25.65,2.61 -53.69,0.63 -79.37,-3.33 -20.4,-3.15 -39.25,-7.27 -58.11,-15.95 -7.27,-3.35 -14.87,-8.02 -22.1,-12.34 a 0.93,0.93 0 0 0 -1.41,0.8 v 1.36 q 0,0.53 0.44,0.82 29.66,19.62 64.73,26.06 34.75,6.38 70.08,7.04 c 13.08,0.24 27.16,-0.3 39.81,-3.87 9.88,-2.79 23.28,-10.53 26.47,-21.04 q 0.12,-0.39 0.51,-0.25"
           id="path905" /><path
           stroke="#304324"
           vector-effect="non-scaling-stroke"
           d="m 548,254 q 7.79,0 17.27,1.88 c 1.34,0.27 3.16,1.09 3.84,-0.62 a 1.32,1.31 -72.3 0 0 -0.9,-1.76 c -9.52,-2.35 -19.02,-2.6 -28.71,-3.25 q -4.04,-0.26 -12.99,-3.44 -0.53,-0.19 -0.86,0.26 c -3.98,5.38 19.87,6.93 22.35,6.93"
           id="path907" /><path
           stroke="#304324"
           vector-effect="non-scaling-stroke"
           d="m 578,275.25 c -30.12,-1.29 -58.96,-5.51 -86.62,-16.81 q -1.67,-0.69 -2.1,1.03 a 1.22,1.21 -72.3 0 0 0.73,1.42 c 31.83,12.69 65.85,18.19 99.5,17.35 q 15.22,-0.38 31,-6.86 0.47,-0.19 0.45,-0.71 c -0.07,-1.66 -1.54,-1.87 -2.92,-1.37 q -19.05,6.85 -40.04,5.95"
           id="path909" /><path
           stroke="#304324"
           vector-effect="non-scaling-stroke"
           d="m 302.32,265.24 c 33.47,23.15 73.29,12.45 110.88,20.28 a 1.32,1.3 37.9 0 0 0.86,-0.1 q 1.89,-0.89 1.02,-2.1 c -1.42,-1.98 -18.86,-3.73 -20.58,-3.82 -17.5,-0.82 -35.06,-1.16 -52.49,-3.04 q -20.09,-2.17 -36.99,-13.04 c -1.18,-0.76 -2.67,-0.78 -3.08,0.81 q -0.16,0.64 0.38,1.01"
           id="path911" /><path
           stroke="#304324"
           vector-effect="non-scaling-stroke"
           d="m 580.39,282.3 c -11.79,0.15 -23.82,0.29 -34.71,-0.46 q -30.35,-2.1 -57.99,-14.52 c -1.06,-0.48 -2.44,-0.68 -2.82,0.65 a 0.63,0.63 0 0 0 0.34,0.75 c 30.23,13.89 62.82,17.98 96.07,15.8 a 0.86,0.85 -3.7 0 0 0.8,-0.9 c -0.04,-0.82 -0.88,-1.33 -1.69,-1.32"
           id="path913" /><path
           stroke="#304324"
           vector-effect="non-scaling-stroke"
           d="m 446.85,282.02 c 0.89,5.9 -0.17,10.41 -6.04,12.8 q -14.44,5.87 -28.8,14.1 a 0.94,0.94 0 0 0 -0.26,1.41 l 0.8,0.99 q 0.44,0.54 1.06,0.21 13.78,-7.32 18.71,-9.46 c 9.44,-4.09 21,-6.86 17.34,-20.64 q -0.17,-0.65 -0.82,-0.5 l -1.49,0.34 q -0.6,0.14 -0.5,0.75"
           id="path915" /><path
           stroke="#304324"
           vector-effect="non-scaling-stroke"
           d="m 354.48,288.25 c -11.74,0.04 -22.94,-0.8 -33.63,-6.13 q -0.46,-0.23 -0.91,0.02 l -0.92,0.5 a 1.19,1.19 0 0 0 0.03,2.1 q 12.28,6.28 25.96,6.59 29.66,0.66 59.21,-2.33 c 1.47,-0.15 2,-0.89 1.41,-2.34 q -0.19,-0.45 -0.67,-0.56 -0.98,-0.22 -2.21,-0.1 -23.37,2.15 -48.27,2.25"
           id="path917" /><path
           stroke="#304324"
           vector-effect="non-scaling-stroke"
           d="m 431.73,290.02 c 1.26,-0.59 8.25,-3.22 6.32,-5.21 A 1.77,1.77 0 0 0 436,284.46 c -26.16,12.96 -51.92,20.97 -81.31,29.41 -1.22,0.35 -2.06,1.49 -0.97,2.59 a 1.2,1.19 -28.5 0 0 1.1,0.32 q 40.18,-9.27 76.91,-26.76"
           id="path919" /><path
           stroke="#304324"
           vector-effect="non-scaling-stroke"
           d="m 490.49,307.58 c -7.18,-2.03 -8.82,-6.2 -11.74,-12.79 q -0.74,-1.68 -2.29,-0.7 -0.38,0.23 -0.31,0.68 c 3.48,22.73 26.01,11.98 35.87,27.38 q 0.31,0.49 0.89,0.41 1.33,-0.17 1.78,-1.3 0.18,-0.48 -0.09,-0.92 c -5.67,-9.1 -14.66,-10.1 -24.11,-12.76"
           id="path921" /><path
           stroke="#567841"
           vector-effect="non-scaling-stroke"
           d="m 261.29,396 c -2.42,16.57 12.79,17.56 22.17,25.09 1.09,0.88 1.94,2.5 3.75,3.16"
           id="path923" /><path
           stroke="#304324"
           vector-effect="non-scaling-stroke"
           d="m 287.21,424.25 c 1.93,11.09 14.11,18.01 22.59,22.53 q 0.57,0.31 0.98,-0.18 l 0.39,-0.45 a 1.44,1.44 0 0 0 -0.33,-2.17 c -8.05,-4.94 -18.46,-10.5 -20.43,-20.3 -0.77,-3.78 -2.01,-6.31 -4.95,-8.17 q -3.52,-2.24 -15.4,-7.55 c -7.31,-3.26 -3.72,-12.58 -8.4,-18.39 -3.79,-4.71 -7.99,-9.17 -9.45,-14.77 q -2.52,-9.65 0.18,-19.58 0.57,-2.13 -1.12,-2.52 a 1.26,1.25 -75.4 0 0 -1.49,0.88 c -4.55,15.84 -1.34,25.92 9.42,37.72 q 1.2,1.32 2.09,4.7"
           id="path925" /><path
           stroke="#26351d"
           vector-effect="non-scaling-stroke"
           d="m 287.21,424.25 c -1.49,-12.83 -24.93,-8.61 -25.02,-24.11 -0.01,-1.54 -0.52,-2.72 -0.9,-4.14"
           id="path927" /><path
           stroke="#567841"
           vector-effect="non-scaling-stroke"
           d="m 201.04,440.5 -0.53,0.71 q -0.29,0.39 -0.09,0.84 7.38,16.6 25.21,19.91"
           id="path929" /><path
           stroke="#304324"
           vector-effect="non-scaling-stroke"
           d="m 225.63,461.96 11.58,1.89 q 0.75,0.12 0.93,-0.62 l 0.4,-1.67 q 0.13,-0.59 -0.46,-0.7 -4.4,-0.85 -8.83,-1.7 c -16.27,-3.12 -26.52,-16.79 -29.01,-32.54 -0.25,-1.55 -1.43,-2.36 -2.88,-1.57 q -0.46,0.25 -0.39,0.77 1.08,7.62 4.07,14.68"
           id="path931" /><path
           stroke="#26351d"
           vector-effect="non-scaling-stroke"
           d="M 225.63,461.96 Q 209.42,455.72 201.04,440.5"
           id="path933" /><path
           stroke="#304324"
           vector-effect="non-scaling-stroke"
           d="m 521.98,153.52 c 25.72,-11.93 53.65,-9.65 80.57,-2.8 q 2.17,0.55 2.95,-0.64 a 1.19,1.19 0 0 0 -0.67,-1.79 c -27.54,-7.88 -60.17,-10.67 -86.03,3.27 q -1.3,0.7 0.1,2.09 0.32,0.32 0.78,0.32 1.35,-0.01 2.3,-0.45"
           id="path935" /><path
           stroke="#808080"
           vector-effect="non-scaling-stroke"
           d="m 344.55,206.95 c 5.74,0.42 16.75,1.92 18.53,7.94 q 0.15,0.52 0.7,0.53 c 16.01,0.33 32.14,2.97 48.14,4.89 a 0.3,0.3 0 0 0 0.19,-0.55 c -7.98,-4.76 -6.8,-15.75 2.01,-18.8 a 0.32,0.32 0 0 0 -0.09,-0.62 c -25.78,-1.56 -52.11,-1.93 -77.85,1.02 q -20.77,2.37 -39.69,11.17 -0.41,0.19 0.02,0.31 c 3.32,0.89 5.7,1.33 9.03,-0.29 11.5,-5.58 26.48,-6.51 39.01,-5.6"
           id="path937" /><path
           stroke="#808080"
           vector-effect="non-scaling-stroke"
           d="m 423.05,201.94 c 5.75,3.54 7.25,11 2.48,15.92 -1.03,1.06 -2.46,1.84 -3.83,2.75 q -0.68,0.44 0.13,0.49 c 16.66,1.05 30.97,0.82 45.78,-4.57 a 0.29,0.28 50.8 0 0 0.05,-0.51 q -20.48,-12.49 -44.48,-14.46 -0.87,-0.07 -0.13,0.38"
           id="path939" /><path
           stroke="#33565a"
           vector-effect="non-scaling-stroke"
           d="m 328.85,224.18 c 8.68,-0.62 25.22,2.9 30.86,-6.09 3.91,-6.23 -9.21,-7.78 -12.48,-8.15 q -15.98,-1.83 -31.65,1.72 c -10.68,2.42 -19.69,9.52 -26.71,18 -2.28,2.77 -3.63,5.92 0.58,7.79 q 0.46,0.2 0.95,0.11 3.44,-0.66 6.06,-2.36 15.01,-9.78 32.39,-11.02"
           id="path941" /><path
           stroke="#4d3020"
           vector-effect="non-scaling-stroke"
           d="m 549,445.75 q 13.93,-2.74 25.87,-8.34 c 19.49,-9.15 40,-30.34 46.2,-51.35 4.69,-15.9 -12.02,-19.18 -23.07,-21.04 q -48.32,-8.11 -97.25,-10.55 -58.27,-2.9 -137.9,-1.85 c -14.75,0.19 -29.22,0.42 -43.32,6.36 -16.53,6.95 -12.99,18.56 -3.13,29.4 q 6.65,7.32 13.44,14.54 33.37,35.51 80.77,43.49 6.65,1.12 19.86,2.21 c 28.21,2.34 56.46,4.44 84.75,2.37 11.42,-0.83 21.98,-2.92 33.78,-5.24"
           id="path943" /><path
           stroke="#808080"
           vector-effect="non-scaling-stroke"
           d="m 349.29,356.88 c 2.98,12.97 5.11,25.81 5.98,39.04 q 0.04,0.58 0.62,0.55 l 33.41,-1.68 q 0.55,-0.03 0.5,-0.58 -1.8,-18.99 -5.52,-37.7 -0.13,-0.62 -0.76,-0.61 l -33.77,0.39 q -0.59,0.01 -0.46,0.59"
           id="path945" /><path
           stroke="#808080"
           vector-effect="non-scaling-stroke"
           d="m 392.94,391.65 c 0.09,0.88 -0.06,1.38 -0.16,2.26 q -0.07,0.61 0.54,0.61 l 35.99,-0.03 a 0.77,0.77 0 0 0 0.76,-0.89 l -5.84,-37.02 q -0.09,-0.56 -0.65,-0.56 l -35.61,-0.06 q -0.45,0 -0.35,0.44 3.68,17.41 5.32,35.25"
           id="path947" /><path
           stroke="#808080"
           vector-effect="non-scaling-stroke"
           d="m 462.75,356.6 -34.88,-0.61 q -0.28,0 -0.24,0.27 l 5.88,37.75 q 0.08,0.52 0.61,0.54 l 37.47,1.4 q 0.53,0.02 0.5,-0.52 -1.41,-19.89 -8.75,-38.43 a 0.64,0.64 0 0 0 -0.59,-0.4"
           id="path949" /><path
           stroke="#808080"
           vector-effect="non-scaling-stroke"
           d="m 313.63,378.5 c 4.25,7.1 10.5,14.22 16.64,19.78 q 0.41,0.37 0.96,0.32 l 20.04,-1.62 a 0.88,0.86 84.8 0 0 0.79,-0.96 q -1.93,-19.7 -6.03,-39.07 -0.1,-0.47 -0.58,-0.43 c -10.51,0.77 -21.5,2.97 -30.25,9.15 -4.95,3.5 -4.51,7.92 -1.57,12.83"
           id="path951" /><path
           stroke="#808080"
           vector-effect="non-scaling-stroke"
           d="m 510.02,358.45 -42.78,-1.84 q -0.55,-0.02 -0.34,0.49 7.55,18.57 8.61,38.63 0.02,0.43 0.45,0.46 l 42.11,2.9 q 0.55,0.04 0.51,-0.51 c -0.77,-13.39 -4.28,-26.63 -7.83,-39.55 q -0.16,-0.56 -0.73,-0.58"
           id="path953" /><path
           stroke="#808080"
           vector-effect="non-scaling-stroke"
           d="m 552.37,362.08 -37.78,-3.46 q -0.71,-0.07 -0.49,0.61 6.31,19.43 8.1,39.77 0.04,0.48 0.52,0.53 l 34.32,3.72 a 0.77,0.77 0 0 0 0.85,-0.8 q -0.93,-20.23 -5.17,-40.05 -0.06,-0.29 -0.35,-0.32"
           id="path955" /><path
           stroke="#808080"
           vector-effect="non-scaling-stroke"
           d="m 561.2,399.43 c 0.05,1.08 -0.35,2.91 -0.05,4.18 q 0.13,0.53 0.67,0.6 15.4,2.07 30.11,7.04 0.46,0.15 0.58,-0.32 c 3.58,-14.53 3.54,-28.01 2.05,-42.41 a 0.97,0.96 -89.3 0 0 -0.83,-0.86 l -36.98,-5.06 q -0.61,-0.08 -0.47,0.51 3.96,17.94 4.92,36.32"
           id="path957" /><path
           stroke="#808080"
           vector-effect="non-scaling-stroke"
           d="m 597.82,369.13 c 1.94,14.81 1.73,28.33 -1.97,42.72 q -0.12,0.42 0.18,0.76 c 2.38,2.7 4.08,1.65 6.08,-0.7 6.21,-7.25 19.26,-25.39 15.26,-35.13 -2.12,-5.17 -13.03,-7.35 -19.18,-8.03 q -0.43,-0.05 -0.37,0.38"
           id="path959" /><path
           stroke="#808080"
           vector-effect="non-scaling-stroke"
           d="m 393.27,398.47 c -0.24,13.3 -1.7,25.11 -5.32,37.93 q -0.13,0.47 0.33,0.63 19.44,6.72 40,8.02 0.51,0.03 0.6,-0.47 4.34,-23.08 1.51,-46.43 -0.08,-0.67 -0.75,-0.67 l -35.6,0.23 q -0.76,0.01 -0.77,0.76"
           id="path961" /><path
           stroke="#808080"
           vector-effect="non-scaling-stroke"
           d="m 433.71,398.37 c 2.26,16.38 1.36,29.98 -1.41,46.54 q -0.09,0.54 0.46,0.58 l 33.7,2.33 a 1.09,1.08 -79.6 0 0 1.11,-0.77 q 6.81,-23.15 4.84,-47.24 -0.05,-0.61 -0.66,-0.64 l -37.49,-1.41 q -0.64,-0.03 -0.55,0.61"
           id="path963" /><path
           stroke="#808080"
           vector-effect="non-scaling-stroke"
           d="m 384.74,435.18 c 3.2,-11.43 5.09,-23.81 5.3,-36.55 q 0.02,-0.63 -0.62,-0.6 l -33.11,1.66 q -0.74,0.03 -0.76,0.78 -0.17,9.18 -2.23,18.15 -0.11,0.51 0.32,0.81 14.29,9.91 30.58,16.01 0.4,0.15 0.52,-0.26"
           id="path965" /><path
           stroke="#808080"
           vector-effect="non-scaling-stroke"
           d="m 474.39,448.05 q 18.16,0.95 36.11,-0.14 a 0.79,0.78 -84.8 0 0 0.7,-0.59 c 3.6,-14.59 7.08,-29.1 7.58,-44.12 a 0.89,0.89 0 0 0 -0.83,-0.92 l -41.41,-2.9 q -0.86,-0.06 -0.78,0.8 2.29,24.22 -4.81,47.4 -0.17,0.55 0.39,0.65 c 0.97,0.18 2.24,-0.22 3.05,-0.18"
           id="path967" /><path
           stroke="#808080"
           vector-effect="non-scaling-stroke"
           d="m 351.93,400.34 c -5.98,0.04 -12.46,0.57 -18.33,1.55 q -0.45,0.07 -0.11,0.37 l 16.2,14.34 q 0.68,0.61 0.8,-0.3 l 1.93,-15.42 q 0.07,-0.55 -0.49,-0.54"
           id="path969" /><path
           stroke="#808080"
           vector-effect="non-scaling-stroke"
           d="m 522.01,405.49 c -0.38,13.04 -2.81,23.91 -7.31,41.59 q -0.2,0.8 0.61,0.68 l 30.78,-4.51 q 0.62,-0.1 0.93,-0.65 8.91,-16.34 10.5,-34.9 0.1,-1.17 -1.07,-1.3 l -33.66,-3.66 q -0.55,-0.06 -0.61,0.49 -0.14,1.17 -0.17,2.26"
           id="path971" /><path
           stroke="#808080"
           vector-effect="non-scaling-stroke"
           d="m 560.32,412.48 q -1.7,15.24 -8.86,28.75 -0.26,0.48 0.28,0.38 20.13,-3.91 36.54,-16.16 0.34,-0.26 0.46,-0.67 l 2.75,-9.72 q 0.14,-0.48 -0.33,-0.64 -14.47,-4.94 -29.65,-7.01 -0.55,-0.07 -0.62,0.48 -0.32,2.4 -0.57,4.59"
           id="path973" /><path
           stroke="#808080"
           vector-effect="non-scaling-stroke"
           d="m 597.24,417.64 a 0.31,0.31 0 0 0 -0.05,-0.49 l -2.03,-1.25 a 0.31,0.31 0 0 0 -0.46,0.17 l -1.21,4.25 a 0.31,0.31 0 0 0 0.51,0.31 l 3.24,-2.99"
           id="path975" /></g><path
         fill="#000000"
         d="m 597.62,310.89 c 10.48,12.84 24.25,23.5 27.87,39.78 q 0.12,0.51 0.61,0.66 c 22.85,7.12 34.98,17.44 20.56,42.34 -10.75,18.53 -22.96,34.38 -37.93,49.64 q -6.28,6.41 -13.56,14.86 c -16.36,18.98 -36.13,35.56 -59.91,47.02 q -33.5,16.15 -70.07,23.85 -0.66,0.14 -0.66,0.82 l -0.01,4.06 q 0,0.72 0.7,0.89 c 4.81,1.18 10.2,2.46 14.44,4.35 23.35,10.4 26.99,35.47 23.18,58.43 q -0.08,0.48 -0.47,0.78 c -27.95,22.25 -60.25,27.88 -95.19,28.96 -53.1,1.63 -106.31,-2.37 -158.94,-9.24 C 186.4,610.02 125.45,597.81 71.11,565.62 Q 60.95,559.6 42,547.24 c -12.2,-7.96 -19.75,-16 -15.67,-31.54 q 3.91,-14.89 12.24,-27.66 c 9.02,-13.84 17.74,-22.48 34.7,-21.31 q 0.8,0.06 0.7,-0.74 -0.82,-6.87 0.57,-13.62 0.11,-0.54 -0.25,-0.96 C 54.4,428.31 52.63,395.13 55.69,366.08 61.52,310.84 78.12,257.25 102.97,207.7 c 11.68,-23.28 31.42,-50.08 59.05,-54.65 q 5.32,-0.88 7.66,-1.24 0.59,-0.09 0.76,-0.66 C 185.31,99.8 220.9,58.32 267.3,34.3 286.57,24.33 308.29,20.77 329.94,23.57 q 17.1,2.21 33.7,6.81 c 22.68,6.29 42.47,19.28 58.3,36.68 q 0.36,0.4 0.85,0.18 26.12,-12.12 49.17,-19.04 c 41.9,-12.58 96.25,-3.13 115.06,41.03 5.84,13.7 9,28.39 11.73,42.97 q 0.1,0.49 0.58,0.66 c 15.76,5.33 29.52,10.74 43,20.78 6.48,4.82 12.77,11.36 11.17,19.86 q -0.1,0.54 0.42,0.72 c 10.7,3.62 19.89,9.73 19.43,22.37 q -0.02,0.51 0.41,0.79 6.4,4.13 9.15,10.86 c 1.88,4.59 0.94,10.59 0.56,15.61 q -0.04,0.5 0.21,0.94 c 2.52,4.46 0.88,7.58 1.15,12.04 0.24,3.82 0.37,12.53 -2.2,15.58 -2.02,2.4 -5.6,2.05 -7.67,-0.35 q -0.34,-0.4 -0.82,-0.18 l -4.46,2.03 q -0.52,0.24 -0.35,0.78 c 6.24,19.41 -18.84,11.6 -24.89,23.15 -8.65,16.51 -29.86,26.72 -46.65,32.47 a 0.37,0.36 -28.9 0 0 -0.17,0.58 z M 122.31,479.57 c 39.6,18.14 80.66,26.93 124.44,34.45 q 53.47,9.19 99.99,14.85 c 31.03,3.77 57.93,5.79 87.32,2.19 30.42,-3.72 58.81,-11.53 86.86,-22.78 29.34,-11.78 53.18,-29.64 73.37,-54.64 q 0.09,-0.1 -0.03,-0.04 -17.01,8.32 -37.45,11.97 c -50.48,9.02 -100.55,6.69 -150.5,-0.59 -27.48,-4.01 -60.83,-14.52 -81.33,-34.21 Q 307.52,414 292.13,395.36 q -9.77,-11.83 -13.4,-23.81 c -5.11,-16.85 5.49,-28.81 21.27,-32.29 q 13.02,-2.87 29.75,-3.53 30.12,-1.19 60.25,-1.69 107,-1.77 213,12.73 5.09,0.7 18.27,3.38 0.56,0.12 0.43,-0.44 c -3.65,-15.31 -17.64,-24.96 -27.2,-37.86 q -0.29,-0.4 -0.77,-0.25 c -19.47,6.27 -38.72,7.09 -59.25,4.82 q -1.5,-0.17 -2.71,-0.19 a 0.44,0.44 0 0 0 -0.32,0.76 l 5.93,5.7 a 2.11,2.07 22.4 0 1 0.64,1.5 c -0.01,2.69 -2.11,2.03 -3.17,0.73 -8.45,-10.25 -19.81,-12.7 -31.11,-17.41 -2.46,-1.03 -13.56,-6.75 -10.87,-10.44 a 0.84,0.84 0 0 1 1.3,-0.07 q 4.85,5.3 11.5,7.88 c 7.31,2.84 15.43,6.68 23.21,7.58 q 16.78,1.94 33.63,1.37 c 22.69,-0.77 44.05,-8.58 63.29,-20.8 q 9.61,-6.1 14.94,-15.34 c 4.97,-8.6 10.83,-8.92 19.57,-11.43 5.35,-1.54 8.1,-4.64 5.74,-10.46 q -0.17,-0.41 -0.59,-0.28 -16.88,5.21 -34.45,7.38 c -1.46,0.18 -2.26,-0.52 -1.98,-1.99 q 0.1,-0.51 0.61,-0.63 c 9.86,-2.28 19.74,-3.87 29.59,-6.37 q 10.14,-2.57 14.27,-5.41 3.49,-2.39 1.71,-7.28 -0.16,-0.43 -0.53,-0.72 -7.96,-6.19 -14.74,-13.65 -0.35,-0.39 -0.87,-0.43 c -17.12,-1.28 -31.68,-0.97 -48.48,0.17 -23.92,1.62 -48.27,0.04 -72.08,-2.41 -7.31,-0.76 -14.6,-2.5 -18.85,-9 a 1.52,1.52 0 0 1 0.72,-2.25 c 17.26,-6.74 33.3,-8.03 51.87,-8.14 q 28.28,-0.16 56.56,-0.07 21.41,0.07 41.31,7.76 4.93,1.91 9.94,3.8 0.38,0.15 0.43,-0.26 c 1.5,-11.18 -9.66,-18.07 -18.87,-21.82 -42.99,-17.48 -88.04,-25.53 -134.72,-16.89 -8.41,1.56 -23.15,4.46 -34.56,7.13 q -1.33,0.31 -1.69,-1.01 -0.48,-1.79 1.05,-2.14 c 30.79,-7.17 60.91,-12.7 92.68,-9.97 20.3,1.74 39.79,6.53 59.7,12.85 q 14.34,4.54 25.1,9.97 0.4,0.2 0.44,-0.25 c 0.56,-7.47 -4.51,-11.03 -10.44,-13.82 q -18.6,-8.75 -43.92,-14.83 -54.77,-13.14 -106.78,2.29 -15.7,4.66 -31.13,10.33 -0.37,0.13 -0.44,0.51 l -1.46,7.49 q -0.14,0.7 -0.75,0.32 c -12.84,-7.95 -24.22,-15.35 -38.57,-20.55 -12.28,-4.45 -23.45,-5.89 -36.63,-6.38 -15.74,-0.59 -30.41,-0.13 -45.02,4.24 -21.77,6.52 -40.15,20.92 -61.54,27.71 -12.44,3.94 -24.66,0.91 -37.44,0.34 -4,-0.18 -11.57,0.61 -11,5.97 0.43,4.08 6.4,7.4 10.53,10.27 q 0.6,0.42 0.14,1 l -0.84,1.05 q -0.36,0.46 -0.89,0.19 c -4.61,-2.38 -10.45,-6.24 -11.79,-11.28 -2.74,-10.28 11.2,-10.98 17.29,-10.38 16.54,1.62 28.39,3.15 43.31,-4.36 q 21.03,-10.58 35.62,-17.7 c 22.27,-10.88 47.82,-12.31 72.2,-9.93 22.76,2.23 44.14,11.48 62.51,24.89 a 0.48,0.48 0 0 0 0.76,-0.33 c 2.8,-21.53 -16.72,-28.71 -33.6,-31.42 q -24.44,-3.93 -34.07,-4.77 -26.87,-2.33 -53.2,3.4 c -17.56,3.82 -35.32,12.37 -47.46,19.59 q -18.82,11.2 -40.7,9.56 c -1.58,-0.12 -2,-1 -1.44,-2.44 q 0.16,-0.41 0.61,-0.47 c 7.7,-0.93 14.75,-0.39 22.52,-2.17 q 7.53,-2 13.24,-4.99 c 12.32,-6.45 22.43,-12.3 34.33,-16.63 q 6.55,-2.38 13.18,-4.55 c 37.49,-8.92 72.96,-5.37 109.12,3.95 a 0.34,0.33 -10.7 0 0 0.36,-0.52 C 445.64,135.04 434.4,122.13 419.18,112.32 q -14.36,-9.26 -34.36,-14.88 c -34.22,-9.6 -67.57,-12.2 -99.57,3.33 q -12.43,6.04 -24.34,13.1 c -1.36,0.81 -2.11,0.26 -2.46,-1.14 q -0.19,-0.78 0.46,-1.25 l 4.92,-3.53 q 6.9,-2.89 13.44,-6.34 C 296.3,91.56 314.76,86.34 336.5,86.19 q 4.85,-0.06 12.25,0.82 33.27,3.92 62.76,17.48 c 11.04,5.07 18.5,12.37 27.9,19.12 a 0.86,0.85 14.6 0 0 1.35,-0.79 C 438.38,102.33 432.66,82.86 418.3,67.7 403.17,51.73 384.52,39.44 363,33.53 q -24.09,-6.61 -46.49,-7.8 -11.57,0.29 -15.73,1.02 c -33.29,5.86 -62.67,26.75 -85.34,50.95 -32.35,34.54 -46.15,78.75 -55.16,124.07 a 1.12,1.11 12.8 0 1 -1.37,0.86 q -1.98,-0.52 -1.75,-1.6 4.87,-22.46 11.45,-44.64 a 0.8,0.79 -84.2 0 0 -0.83,-1.02 c -28.84,2.58 -48.8,27.97 -61.12,52.06 -21.1,41.3 -36.52,87.3 -44.41,132.87 -3.82,22.09 -5.63,45.11 -3.01,67.44 4.41,37.49 30.12,58.7 63.07,71.83 z M 595.1,131.06 C 590.87,107.73 583.61,75.98 561.68,62.04 516.45,33.29 469.33,49.05 425.19,69.62 q -0.5,0.23 -0.17,0.66 c 11.59,15.16 16.3,32.98 19.08,51.79 q 0.09,0.55 0.63,0.43 c 49.55,-11.14 101.63,-6.49 149.93,8.96 q 0.55,0.17 0.44,-0.4 z m -127.13,26.23 c 5.39,4.42 8.06,10.06 8.8,16.98 q 0.05,0.47 0.48,0.31 6.2,-2.22 23.24,-7.83 c 35.14,-11.58 71.17,-13.92 107.08,-6.4 q 21.5,4.5 42.29,11.97 a 0.68,0.68 0 0 0 0.91,-0.66 c -0.17,-5.54 -2.83,-9.01 -7.24,-12.71 -19.78,-16.64 -44.01,-23.61 -69.75,-30.09 q -40.46,-10.19 -82.03,-9.04 c -16.48,0.45 -33.03,2.96 -49.25,6.33 a 0.53,0.53 0 0 0 -0.28,0.88 q 9.89,10.76 18.33,23.05 c 2.06,3.01 4.68,4.96 7.42,7.21 z m 157.25,64.31 c -3.6,-4.4 -3.17,-9.16 1.04,-13 q 0.6,-0.55 -0.22,-0.56 -31.15,-0.17 -62.29,0.32 c -14.53,0.23 -26.33,1.54 -39.61,6.9 q -0.52,0.21 -0.07,0.54 c 5.61,4.11 13.15,4.9 20.19,5.61 q 40.71,4.14 80.73,0.74 0.64,-0.05 0.23,-0.55 z m 32.56,0.73 c 3.94,-7.07 16.57,-3.23 22.05,-0.43 q 0.46,0.23 0.62,-0.25 0.41,-1.26 -0.77,-1.84 -19.34,-9.51 -41.71,-11.25 -0.78,-0.06 -0.23,0.5 5.82,5.92 0.7,12.49 -0.42,0.53 0.26,0.56 l 18.42,0.6 q 0.44,0.02 0.66,-0.38 z m 18.64,16.51 c 4.47,3.52 -1.99,12.71 2.67,12.69 q 0.51,0 0.88,-0.36 c 3.28,-3.2 2.52,-17.31 2.45,-22.03 -0.03,-1.82 -0.88,-3.08 -2.3,-4.01 q -8.31,-5.44 -18.15,-3.76 a 1.67,1.67 0 0 0 -0.99,2.74 q 6.91,8.03 15.44,14.73 z M 563.79,460.63 c 23.64,-5.33 40.16,-14.45 55.87,-33.48 q 10.69,-12.95 19.46,-27.22 c 5.07,-8.24 13.8,-21.87 9.18,-31.42 -7.02,-14.49 -46.43,-19.17 -59.71,-20.78 -86.33,-10.49 -172.56,-12.5 -259.41,-8.84 -11.85,0.5 -30.72,2.26 -40.11,8.95 -19.91,14.2 2.08,41.64 12.66,53.44 q 15.4,17.17 26.43,27.55 c 12.08,11.39 29.04,19.53 44.57,24.93 10.83,3.77 23.45,6.29 35.01,8.04 q 49.36,7.47 100.32,5.9 28.26,-0.87 55.73,-7.07 z M 124.71,498 c 44.84,25.43 95.69,36.14 146.53,42.83 q 45.06,5.93 90.45,7.81 c 23.95,0.99 47.27,1.08 70.55,-2.94 q 8.87,-1.54 20.51,-6.49 l 8.34,-4.32 q 0.41,-0.21 0.41,-0.66 v -3.97 q 0,-0.54 -0.53,-0.43 -40.11,8.63 -81.03,5.33 C 328.83,531.03 277.48,522.93 227.07,513.63 193.81,507.48 162.79,499.51 131.55,487.14 L 126.04,485 C 109.06,477.17 92.46,469.03 78.96,456.17 q -1.62,-1.54 -1.81,0.69 -0.42,5.05 0.15,10.12 a 1.52,1.48 -76.1 0 0 0.61,1.04 c 14.83,10.64 30.57,21.89 46.8,29.98 z m -27.52,78.09 c 40.82,18.95 84.29,28.97 128.31,35.64 q 52.94,8.03 107.93,11.48 c 36.98,2.32 75.62,3.09 112.31,-2.73 20.2,-3.21 37.84,-11.29 53.76,-24.09 a 1.53,1.51 72.7 0 0 0.55,-1.06 c 0.47,-6.49 1.23,-13.28 0.5,-19.66 -2.5,-21.7 -12.79,-33.71 -34.8,-37.44 q -0.49,-0.08 -0.86,-0.4 -1.16,-1 -2.37,-0.33 c -21.49,11.76 -42.28,14.23 -67.46,14.57 -53.34,0.72 -107.88,-4.74 -160.4,-13.84 C 198.71,532 163.44,521.65 131.75,505.21 Q 103.23,490.27 77.27,471.25 C 73,468.12 63.6,469.92 59.18,471.77 43.97,478.12 32.54,502.85 29.06,517.48 q -3.24,13.59 6.85,21.57 c 5.07,4.02 12.57,8.91 19.63,13.26 7.35,4.52 14.65,9.58 21.88,13.51 q 9.78,5.32 19.77,10.27 z"
         id="path981" /><path
         fill="#4c6a3a"
         d="m 316.51,25.73 c -16.89,4.75 -28.69,15.89 -38.71,28.07 -25.01,30.38 -46.88,63.99 -65.35,99.64 -22.32,43.06 -48.29,86.46 -68.66,128.11 q -11.85,24.23 -18.82,46.69 c -10.79,34.79 -11.58,73.95 -7.08,109.32 q 3.29,25.82 4.42,42.01 C 89.36,466.44 63.65,445.23 59.24,407.74 c -2.62,-22.33 -0.81,-45.35 3.01,-67.44 7.89,-45.57 23.31,-91.57 44.41,-132.87 12.32,-24.09 32.28,-49.48 61.12,-52.06 a 0.8,0.79 -84.2 0 1 0.83,1.02 q -6.58,22.18 -11.45,44.64 -0.23,1.08 1.75,1.6 a 1.12,1.11 12.8 0 0 1.37,-0.86 c 9.01,-45.32 22.81,-89.53 55.16,-124.07 22.67,-24.2 52.05,-45.09 85.34,-50.95 q 4.16,-0.73 15.73,-1.02 z"
         id="path983" /><path
         fill="#608547"
         d="m 316.51,25.73 q 22.4,1.19 46.49,7.8 c 21.52,5.91 40.17,18.2 55.3,34.17 14.36,15.16 20.08,34.63 22.46,55.12 a 0.86,0.85 14.6 0 1 -1.35,0.79 c -9.4,-6.75 -16.86,-14.05 -27.9,-19.12 Q 382.02,90.93 348.75,87.01 341.35,86.13 336.5,86.19 326.96,83.9 317.2,84.94 c -1.82,0.2 -3.79,1.02 -5.95,1.32 q -4.31,0.6 -8.89,2.39 c -1.85,0.72 -3.89,0.84 -5.67,1.55 q -17.47,6.97 -32.86,17.75 l -4.92,3.53 q -0.65,0.47 -0.46,1.25 c 0.35,1.4 1.1,1.95 2.46,1.14 q 11.91,-7.06 24.34,-13.1 c 32,-15.53 65.35,-12.93 99.57,-3.33 q 20,5.62 34.36,14.88 c 15.22,9.81 26.46,22.72 37.05,37.15 a 0.34,0.33 -10.7 0 1 -0.36,0.52 c -36.16,-9.32 -71.63,-12.87 -109.12,-3.95 q -8.79,-0.03 -16.83,3.65 c -13.13,6.01 -25.86,14.03 -38.14,18.78 -1.61,0.63 -2.68,1.75 -5.06,1.58 q -0.62,-0.04 -0.65,0.58 l -0.07,1.58 c -7.77,1.78 -14.82,1.24 -22.52,2.17 q -0.45,0.06 -0.61,0.47 c -0.56,1.44 -0.14,2.32 1.44,2.44 q 21.88,1.64 40.7,-9.56 c 12.14,-7.22 29.9,-15.77 47.46,-19.59 q 26.33,-5.73 53.2,-3.4 9.63,0.84 34.07,4.77 c 16.88,2.71 36.4,9.89 33.6,31.42 a 0.48,0.48 0 0 1 -0.76,0.33 c -18.37,-13.41 -39.75,-22.66 -62.51,-24.89 -24.38,-2.38 -49.93,-0.95 -72.2,9.93 q -14.59,7.12 -35.62,17.7 c -14.92,7.51 -26.77,5.98 -43.31,4.36 -6.09,-0.6 -20.03,0.1 -17.29,10.38 1.34,5.04 7.18,8.9 11.79,11.28 q 0.53,0.27 0.89,-0.19 l 0.84,-1.05 q 0.46,-0.58 -0.14,-1 c -4.13,-2.87 -10.1,-6.19 -10.53,-10.27 -0.57,-5.36 7,-6.15 11,-5.97 12.78,0.57 25,3.6 37.44,-0.34 21.39,-6.79 39.77,-21.19 61.54,-27.71 14.61,-4.37 29.28,-4.83 45.02,-4.24 13.18,0.49 24.35,1.93 36.63,6.38 14.35,5.2 25.73,12.6 38.57,20.55 q 0.61,0.38 0.75,-0.32 l 1.46,-7.49 q 0.07,-0.38 0.44,-0.51 15.43,-5.67 31.13,-10.33 52.01,-15.43 106.78,-2.29 25.32,6.08 43.92,14.83 c 5.93,2.79 11,6.35 10.44,13.82 q -0.04,0.45 -0.44,0.25 -10.76,-5.43 -25.1,-9.97 c -19.91,-6.32 -39.4,-11.11 -59.7,-12.85 -31.77,-2.73 -61.89,2.8 -92.68,9.97 q -1.53,0.35 -1.05,2.14 0.36,1.32 1.69,1.01 c 11.41,-2.67 26.15,-5.57 34.56,-7.13 46.68,-8.64 91.73,-0.59 134.72,16.89 9.21,3.75 20.37,10.64 18.87,21.82 q -0.05,0.41 -0.43,0.26 -5.01,-1.89 -9.94,-3.8 -19.9,-7.69 -41.31,-7.76 -28.28,-0.09 -56.56,0.07 c -18.57,0.11 -34.61,1.4 -51.87,8.14 a 1.52,1.52 0 0 0 -0.72,2.25 c 4.25,6.5 11.54,8.24 18.85,9 23.81,2.45 48.16,4.03 72.08,2.41 16.8,-1.14 31.36,-1.45 48.48,-0.17 q 0.52,0.04 0.87,0.43 6.78,7.46 14.74,13.65 0.37,0.29 0.53,0.72 1.78,4.89 -1.71,7.28 -4.13,2.84 -14.27,5.41 c -9.85,2.5 -19.73,4.09 -29.59,6.37 q -0.51,0.12 -0.61,0.63 c -0.28,1.47 0.52,2.17 1.98,1.99 q 17.57,-2.17 34.45,-7.38 0.42,-0.13 0.59,0.28 c 2.36,5.82 -0.39,8.92 -5.74,10.46 -8.74,2.51 -14.6,2.83 -19.57,11.43 q -5.33,9.24 -14.94,15.34 c -19.24,12.22 -40.6,20.03 -63.29,20.8 q -16.85,0.57 -33.63,-1.37 c -7.78,-0.9 -15.9,-4.74 -23.21,-7.58 q -6.65,-2.58 -11.5,-7.88 a 0.84,0.84 0 0 0 -1.3,0.07 c -2.69,3.69 8.41,9.41 10.87,10.44 11.3,4.71 22.66,7.16 31.11,17.41 1.06,1.3 3.16,1.96 3.17,-0.73 a 2.11,2.07 22.4 0 0 -0.64,-1.5 l -5.93,-5.7 a 0.44,0.44 0 0 1 0.32,-0.76 q 1.21,0.02 2.71,0.19 c 20.53,2.27 39.78,1.45 59.25,-4.82 q 0.48,-0.15 0.77,0.25 c 9.56,12.9 23.55,22.55 27.2,37.86 q 0.13,0.56 -0.43,0.44 -13.18,-2.68 -18.27,-3.38 -106,-14.5 -213,-12.73 -30.13,0.5 -60.25,1.69 -16.73,0.66 -29.75,3.53 c -15.78,3.48 -26.38,15.44 -21.27,32.29 q 3.63,11.98 13.4,23.81 15.39,18.64 32.85,35.41 c 20.5,19.69 53.85,30.2 81.33,34.21 49.95,7.28 100.02,9.61 150.5,0.59 q 20.44,-3.65 37.45,-11.97 0.12,-0.06 0.03,0.04 c -20.19,25 -44.03,42.86 -73.37,54.64 -28.05,11.25 -56.44,19.06 -86.86,22.78 -29.39,3.6 -56.29,1.58 -87.32,-2.19 q -46.52,-5.66 -99.99,-14.85 C 202.97,506.5 161.91,497.71 122.31,479.57 q -1.13,-16.19 -4.42,-42.01 c -4.5,-35.37 -3.71,-74.53 7.08,-109.32 q 6.97,-22.46 18.82,-46.69 C 164.16,239.9 190.13,196.5 212.45,153.44 230.92,117.79 252.79,84.18 277.8,53.8 287.82,41.62 299.62,30.48 316.51,25.73 Z m 48.42,104.83 c 15.47,-0.86 29.68,-0.81 45.21,4.87 q 8.04,2.94 16.01,6.03 1.94,0.75 2.09,-1.26 0.07,-0.81 -0.67,-1.16 c -9.51,-4.47 -19.78,-8.57 -30.07,-10.58 -12.62,-2.46 -26.17,-1.53 -39.16,-1.04 q -18.24,0.69 -36.36,-1.71 -1.69,-0.22 -3.45,-0.24 -0.74,-0.01 -0.76,0.73 l -0.03,1.21 a 0.72,0.72 0 0 0 0.6,0.72 q 23.21,3.75 46.59,2.43 z m -66.73,86.69 q -8.33,6.86 -12.41,12.28 c -3.04,4.04 -1.43,9.58 3.76,10.26 4.4,0.58 9.61,-3.46 14.29,-5.98 6.77,-3.65 13.13,-5.51 20.44,-6.55 11.49,-1.62 30.77,3.21 37.82,-8.03 a 1.68,1.67 -71.6 0 1 1.55,-0.78 c 23.78,2.01 47.28,6.54 71.52,6.59 13.87,0.02 25.09,-1.91 37.29,-6.8 a 1.65,1.64 -39.4 0 0 0.29,-2.9 q -22.49,-14.68 -49.26,-17.42 -30.84,-3.15 -61.76,-1.71 c -25.64,1.19 -48.67,3.51 -71.83,15.72 a 1.52,1.52 0 0 0 0.13,2.75 q 3.8,1.58 7.94,1.88 0.99,0.07 0.23,0.69 z m -29.31,-14.43 q -1.16,-0.86 -2.43,-1.43 -0.57,-0.26 -0.96,0.23 l -0.95,1.16 q -0.47,0.58 0.09,1.07 6.39,5.6 14.9,6.37 0.59,0.06 0.76,-0.51 l 0.4,-1.39 a 0.81,0.81 0 0 0 -0.67,-1.02 q -6.21,-0.8 -11.14,-4.48 z m 226.99,8.72 1.13,2.14 a 0.22,0.22 0 0 0 0.3,0.09 l 2.81,-1.49 a 5.84,1.04 -27.9 0 0 4.68,-3.65 l -0.37,-0.69 a 5.84,1.04 -27.9 0 0 -5.65,1.82 l -2.81,1.49 a 0.22,0.22 0 0 0 -0.09,0.29 z m 3.14,8.19 c 3.28,-4 6.26,-5.41 11.37,-6.11 q 0.52,-0.07 0.74,-0.53 c 0.5,-1.08 -0.32,-1.64 -1.34,-1.64 q -7.71,-0.01 -12.02,6.22 c -0.57,0.82 -0.6,1.82 0.38,2.26 q 0.51,0.24 0.87,-0.2 z m -227.88,-2.09 c -5.05,2.03 -4.09,6.66 -11.23,4.93 q -0.86,-0.2 -0.89,0.67 l -0.03,0.98 q -0.02,0.52 0.43,0.79 c 3.69,2.26 6.66,1.41 9.4,-1.72 q 2.99,-3.4 7.8,-3.4 0.49,0 0.78,-0.39 0.97,-1.26 0.08,-2.43 -0.36,-0.48 -0.95,-0.48 -2.81,0.01 -5.39,1.05 z m 348.61,25.4 c -8.77,-0.29 -17.59,-0.49 -26.07,-2.27 -8.44,-1.77 -16.7,-4.6 -25,-5.43 -11.09,-1.12 -28.62,-1.18 -42.42,-6.5 q -0.61,-0.23 -1.01,0.29 l -0.69,0.92 q -0.38,0.49 0.06,0.94 c 2.91,2.97 12.52,4.63 16.64,5.24 8.93,1.32 23.48,1.44 34.69,3.68 8.23,1.64 16.62,4.57 24.49,5.36 q 12.09,1.2 24.25,0.6 0.56,-0.03 0.56,-0.59 v -1.96 q 0,-0.66 -0.65,-0.56 -2.49,0.36 -4.85,0.28 z M 381.9,241.97 c 14.2,-3.65 27.96,-2.54 40.82,-2.7 q 0.73,-0.01 0.78,-0.74 l 0.11,-1.37 q 0.05,-0.72 -0.66,-0.8 -16.02,-1.61 -31.94,0.27 c -5.16,0.61 -10.86,2.56 -15.76,3.64 -13.43,2.98 -30.63,-1.7 -44.03,-5.41 q -2.13,-0.58 -2.58,1.33 a 0.95,0.94 -74.8 0 0 0.63,1.12 q 14.46,4.59 29.47,6.98 c 7.62,1.22 14.36,-0.06 23.16,-2.32 z m -1.2,13.62 c 4.82,-2.1 8.14,-2.36 12.79,-2.12 q 12.13,0.64 24.27,1.22 c 13.85,0.67 25.07,-3.94 36.02,-11.13 q 1.47,-0.96 0.45,-2.49 a 1.53,1.53 0 0 0 -2.14,-0.41 c -9.87,6.75 -22.32,11.75 -34.59,10.85 q -21.63,-1.59 -28,-1.63 -4.88,-0.03 -10.72,3.33 -0.42,0.23 -0.38,0.71 0.09,1.26 1.45,1.71 0.43,0.14 0.85,-0.04 z m 105.09,-3.54 c 38.74,14.76 82.78,18.59 123.68,13.01 q 1.1,-0.15 1.05,-1.32 a 1.2,1.2 0 0 0 -1.03,-1.15 q -1.97,-0.29 -4.32,-0.06 c -40.16,3.97 -80.63,0.48 -118.88,-13.7 q -0.45,-0.16 -0.63,-0.6 l -1.87,-4.55 q -0.28,-0.68 -0.97,-0.43 l -1.29,0.47 q -0.45,0.16 -0.35,0.64 c 0.48,2.2 1.46,4.48 1.01,6.72 -1.38,6.85 -12.01,14.4 -17.51,16.62 q -9.98,4.03 -19.94,5.05 c -25.65,2.61 -53.69,0.63 -79.37,-3.33 -20.4,-3.15 -39.25,-7.27 -58.11,-15.95 -7.27,-3.35 -14.87,-8.02 -22.1,-12.34 a 0.93,0.93 0 0 0 -1.41,0.8 v 1.36 q 0,0.53 0.44,0.82 29.66,19.62 64.73,26.06 34.75,6.38 70.08,7.04 c 13.08,0.24 27.16,-0.3 39.81,-3.87 9.88,-2.79 23.28,-10.53 26.47,-21.04 q 0.12,-0.39 0.51,-0.25 z M 548,254 q 7.79,0 17.27,1.88 c 1.34,0.27 3.16,1.09 3.84,-0.62 a 1.32,1.31 -72.3 0 0 -0.9,-1.76 c -9.52,-2.35 -19.02,-2.6 -28.71,-3.25 q -4.04,-0.26 -12.99,-3.44 -0.53,-0.19 -0.86,0.26 c -3.98,5.38 19.87,6.93 22.35,6.93 z m 30,21.25 c -30.12,-1.29 -58.96,-5.51 -86.62,-16.81 q -1.67,-0.69 -2.1,1.03 a 1.22,1.21 -72.3 0 0 0.73,1.42 c 31.83,12.69 65.85,18.19 99.5,17.35 q 15.22,-0.38 31,-6.86 0.47,-0.19 0.45,-0.71 c -0.07,-1.66 -1.54,-1.87 -2.92,-1.37 q -19.05,6.85 -40.04,5.95 z M 302.32,265.24 c 33.47,23.15 73.29,12.45 110.88,20.28 a 1.32,1.3 37.9 0 0 0.86,-0.1 q 1.89,-0.89 1.02,-2.1 c -1.42,-1.98 -18.86,-3.73 -20.58,-3.82 -17.5,-0.82 -35.06,-1.16 -52.49,-3.04 q -20.09,-2.17 -36.99,-13.04 c -1.18,-0.76 -2.67,-0.78 -3.08,0.81 q -0.16,0.64 0.38,1.01 z m 278.07,17.06 c -11.79,0.15 -23.82,0.29 -34.71,-0.46 q -30.35,-2.1 -57.99,-14.52 c -1.06,-0.48 -2.44,-0.68 -2.82,0.65 a 0.63,0.63 0 0 0 0.34,0.75 c 30.23,13.89 62.82,17.98 96.07,15.8 a 0.86,0.85 -3.7 0 0 0.8,-0.9 c -0.04,-0.82 -0.88,-1.33 -1.69,-1.32 z m -133.54,-0.28 c 0.89,5.9 -0.17,10.41 -6.04,12.8 q -14.44,5.87 -28.8,14.1 a 0.94,0.94 0 0 0 -0.26,1.41 l 0.8,0.99 q 0.44,0.54 1.06,0.21 13.78,-7.32 18.71,-9.46 c 9.44,-4.09 21,-6.86 17.34,-20.64 q -0.17,-0.65 -0.82,-0.5 l -1.49,0.34 q -0.6,0.14 -0.5,0.75 z m -92.37,6.23 c -11.74,0.04 -22.94,-0.8 -33.63,-6.13 q -0.46,-0.23 -0.91,0.02 l -0.92,0.5 a 1.19,1.19 0 0 0 0.03,2.1 q 12.28,6.28 25.96,6.59 29.66,0.66 59.21,-2.33 c 1.47,-0.15 2,-0.89 1.41,-2.34 q -0.19,-0.45 -0.67,-0.56 -0.98,-0.22 -2.21,-0.1 -23.37,2.15 -48.27,2.25 z m 77.25,1.77 c 1.26,-0.59 8.25,-3.22 6.32,-5.21 A 1.77,1.77 0 0 0 436,284.46 c -26.16,12.96 -51.92,20.97 -81.31,29.41 -1.22,0.35 -2.06,1.49 -0.97,2.59 a 1.2,1.19 -28.5 0 0 1.1,0.32 q 40.18,-9.27 76.91,-26.76 z m 58.76,17.56 c -7.18,-2.03 -8.82,-6.2 -11.74,-12.79 q -0.74,-1.68 -2.29,-0.7 -0.38,0.23 -0.31,0.68 c 3.48,22.73 26.01,11.98 35.87,27.38 q 0.31,0.49 0.89,0.41 1.33,-0.17 1.78,-1.3 0.18,-0.48 -0.09,-0.92 c -5.67,-9.1 -14.66,-10.1 -24.11,-12.76 z M 261.29,396 c -2.42,16.57 12.79,17.56 22.17,25.09 1.09,0.88 1.94,2.5 3.75,3.16 1.93,11.09 14.11,18.01 22.59,22.53 q 0.57,0.31 0.98,-0.18 l 0.39,-0.45 a 1.44,1.44 0 0 0 -0.33,-2.17 c -8.05,-4.94 -18.46,-10.5 -20.43,-20.3 -0.77,-3.78 -2.01,-6.31 -4.95,-8.17 q -3.52,-2.24 -15.4,-7.55 c -7.31,-3.26 -3.72,-12.58 -8.4,-18.39 -3.79,-4.71 -7.99,-9.17 -9.45,-14.77 q -2.52,-9.65 0.18,-19.58 0.57,-2.13 -1.12,-2.52 a 1.26,1.25 -75.4 0 0 -1.49,0.88 c -4.55,15.84 -1.34,25.92 9.42,37.72 q 1.2,1.32 2.09,4.7 z m -60.25,44.5 -0.53,0.71 q -0.29,0.39 -0.09,0.84 7.38,16.6 25.21,19.91 l 11.58,1.89 q 0.75,0.12 0.93,-0.62 l 0.4,-1.67 q 0.13,-0.59 -0.46,-0.7 -4.4,-0.85 -8.83,-1.7 c -16.27,-3.12 -26.52,-16.79 -29.01,-32.54 -0.25,-1.55 -1.43,-2.36 -2.88,-1.57 q -0.46,0.25 -0.39,0.77 1.08,7.62 4.07,14.68 z"
         id="path985" /><path
         fill="#608547"
         d="m 561.68,62.04 c 21.93,13.94 29.19,45.69 33.42,69.02 q 0.11,0.57 -0.44,0.4 c -48.3,-15.45 -100.38,-20.1 -149.93,-8.96 q -0.54,0.12 -0.63,-0.43 c -2.78,-18.81 -7.49,-36.63 -19.08,-51.79 q -0.33,-0.43 0.17,-0.66 c 44.14,-20.57 91.26,-36.33 136.49,-7.58 z"
         id="path987" /><path
         fill="#4c6a3a"
         d="m 336.5,86.19 c -21.74,0.15 -40.2,5.37 -59.23,15.42 q -6.54,3.45 -13.44,6.34 15.39,-10.78 32.86,-17.75 c 1.78,-0.71 3.82,-0.83 5.67,-1.55 q 4.58,-1.79 8.89,-2.39 c 2.16,-0.3 4.13,-1.12 5.95,-1.32 q 9.76,-1.04 19.3,1.25 z"
         id="path989" /><path
         fill="#608547"
         d="m 476.77,174.27 c -0.74,-6.92 -3.41,-12.56 -8.8,-16.98 -2.74,-2.25 -5.36,-4.2 -7.42,-7.21 q -8.44,-12.29 -18.33,-23.05 a 0.53,0.53 0 0 1 0.28,-0.88 c 16.22,-3.37 32.77,-5.88 49.25,-6.33 q 41.57,-1.15 82.03,9.04 c 25.74,6.48 49.97,13.45 69.75,30.09 4.41,3.7 7.07,7.17 7.24,12.71 a 0.68,0.68 0 0 1 -0.91,0.66 q -20.79,-7.47 -42.29,-11.97 c -35.91,-7.52 -71.94,-5.18 -107.08,6.4 q -17.04,5.61 -23.24,7.83 -0.43,0.16 -0.48,-0.31 z m 45.21,-20.75 c 25.72,-11.93 53.65,-9.65 80.57,-2.8 q 2.17,0.55 2.95,-0.64 a 1.19,1.19 0 0 0 -0.67,-1.79 c -27.54,-7.88 -60.17,-10.67 -86.03,3.27 q -1.3,0.7 0.1,2.09 0.32,0.32 0.78,0.32 1.35,-0.01 2.3,-0.45 z"
         id="path991" /><path
         fill="#000000"
         d="m 410.14,135.43 c -15.53,-5.68 -29.74,-5.73 -45.21,-4.87 q -23.38,1.32 -46.59,-2.43 a 0.72,0.72 0 0 1 -0.6,-0.72 l 0.03,-1.21 q 0.02,-0.74 0.76,-0.73 1.76,0.02 3.45,0.24 18.12,2.4 36.36,1.71 c 12.99,-0.49 26.54,-1.42 39.16,1.04 10.29,2.01 20.56,6.11 30.07,10.58 q 0.74,0.35 0.67,1.16 -0.15,2.01 -2.09,1.26 -7.97,-3.09 -16.01,-6.03 z"
         id="path993" /><path
         fill="#000000"
         d="m 602.55,150.72 c -26.92,-6.85 -54.85,-9.13 -80.57,2.8 q -0.95,0.44 -2.3,0.45 -0.46,0 -0.78,-0.32 -1.4,-1.39 -0.1,-2.09 c 25.86,-13.94 58.49,-11.15 86.03,-3.27 a 1.19,1.19 0 0 1 0.67,1.79 q -0.78,1.19 -2.95,0.64 z"
         id="path995" /><path
         fill="#4c6a3a"
         d="m 346.75,146.04 q -6.63,2.17 -13.18,4.55 c -11.9,4.33 -22.01,10.18 -34.33,16.63 q -5.71,2.99 -13.24,4.99 l 0.07,-1.58 q 0.03,-0.62 0.65,-0.58 c 2.38,0.17 3.45,-0.95 5.06,-1.58 12.28,-4.75 25.01,-12.77 38.14,-18.78 q 8.04,-3.68 16.83,-3.65 z"
         id="path997" /><path
         fill="#000000"
         d="m 297.97,216.56 q -4.14,-0.3 -7.94,-1.88 a 1.52,1.52 0 0 1 -0.13,-2.75 c 23.16,-12.21 46.19,-14.53 71.83,-15.72 q 30.92,-1.44 61.76,1.71 26.77,2.74 49.26,17.42 a 1.65,1.64 -39.4 0 1 -0.29,2.9 c -12.2,4.89 -23.42,6.82 -37.29,6.8 -24.24,-0.05 -47.74,-4.58 -71.52,-6.59 a 1.68,1.67 -71.6 0 0 -1.55,0.78 c -7.05,11.24 -26.33,6.41 -37.82,8.03 -7.31,1.04 -13.67,2.9 -20.44,6.55 -4.68,2.52 -9.89,6.56 -14.29,5.98 -5.19,-0.68 -6.8,-6.22 -3.76,-10.26 q 4.08,-5.42 12.41,-12.28 0.76,-0.62 -0.23,-0.69 z m 46.58,-9.61 c 5.74,0.42 16.75,1.92 18.53,7.94 q 0.15,0.52 0.7,0.53 c 16.01,0.33 32.14,2.97 48.14,4.89 a 0.3,0.3 0 0 0 0.19,-0.55 c -7.98,-4.76 -6.8,-15.75 2.01,-18.8 a 0.32,0.32 0 0 0 -0.09,-0.62 c -25.78,-1.56 -52.11,-1.93 -77.85,1.02 q -20.77,2.37 -39.69,11.17 -0.41,0.19 0.02,0.31 c 3.32,0.89 5.7,1.33 9.03,-0.29 11.5,-5.58 26.48,-6.51 39.01,-5.6 z m 78.5,-5.01 c 5.75,3.54 7.25,11 2.48,15.92 -1.03,1.06 -2.46,1.84 -3.83,2.75 q -0.68,0.44 0.13,0.49 c 16.66,1.05 30.97,0.82 45.78,-4.57 a 0.29,0.28 50.8 0 0 0.05,-0.51 q -20.48,-12.49 -44.48,-14.46 -0.87,-0.07 -0.13,0.38 z m -94.2,22.24 c 8.68,-0.62 25.22,2.9 30.86,-6.09 3.91,-6.23 -9.21,-7.78 -12.48,-8.15 q -15.98,-1.83 -31.65,1.72 c -10.68,2.42 -19.69,9.52 -26.71,18 -2.28,2.77 -3.63,5.92 0.58,7.79 q 0.46,0.2 0.95,0.11 3.44,-0.66 6.06,-2.36 15.01,-9.78 32.39,-11.02 z"
         id="path999" /><path
         fill="#ffffff"
         d="m 363.08,214.89 c -1.78,-6.02 -12.79,-7.52 -18.53,-7.94 -12.53,-0.91 -27.51,0.02 -39.01,5.6 -3.33,1.62 -5.71,1.18 -9.03,0.29 q -0.43,-0.12 -0.02,-0.31 18.92,-8.8 39.69,-11.17 c 25.74,-2.95 52.07,-2.58 77.85,-1.02 a 0.32,0.32 0 0 1 0.09,0.62 c -8.81,3.05 -9.99,14.04 -2.01,18.8 a 0.3,0.3 0 0 1 -0.19,0.55 c -16,-1.92 -32.13,-4.56 -48.14,-4.89 q -0.55,-0.01 -0.7,-0.53 z"
         id="path1001" /><path
         fill="#000000"
         d="m 268.89,202.82 q 4.93,3.68 11.14,4.48 a 0.81,0.81 0 0 1 0.67,1.02 l -0.4,1.39 q -0.17,0.57 -0.76,0.51 -8.51,-0.77 -14.9,-6.37 -0.56,-0.49 -0.09,-1.07 l 0.95,-1.16 q 0.39,-0.49 0.96,-0.23 1.27,0.57 2.43,1.43 z"
         id="path1003" /><path
         fill="#ffffff"
         d="m 425.53,217.86 c 4.77,-4.92 3.27,-12.38 -2.48,-15.92 q -0.74,-0.45 0.13,-0.38 24,1.97 44.48,14.46 a 0.29,0.28 50.8 0 1 -0.05,0.51 c -14.81,5.39 -29.12,5.62 -45.78,4.57 q -0.81,-0.05 -0.13,-0.49 c 1.37,-0.91 2.8,-1.69 3.83,-2.75 z"
         id="path1005" /><path
         fill="#000000"
         d="m 495.88,211.54 a 0.22,0.22 0 0 1 0.09,-0.29 l 2.81,-1.49 a 5.84,1.04 -27.9 0 1 5.65,-1.82 l 0.37,0.69 a 5.84,1.04 -27.9 0 1 -4.68,3.65 l -2.81,1.49 a 0.22,0.22 0 0 1 -0.3,-0.09 z"
         id="path1007" /><path
         fill="#ffffff"
         d="m 626.26,208.6 c -4.21,3.84 -4.64,8.6 -1.04,13 q 0.41,0.5 -0.23,0.55 -40.02,3.4 -80.73,-0.74 c -7.04,-0.71 -14.58,-1.5 -20.19,-5.61 q -0.45,-0.33 0.07,-0.54 c 13.28,-5.36 25.08,-6.67 39.61,-6.9 q 31.14,-0.49 62.29,-0.32 0.82,0.01 0.22,0.56 z"
         id="path1009" /><path
         fill="#ffffff"
         d="m 679.83,221.9 c -5.48,-2.8 -18.11,-6.64 -22.05,0.43 q -0.22,0.4 -0.66,0.38 l -18.42,-0.6 q -0.68,-0.03 -0.26,-0.56 5.12,-6.57 -0.7,-12.49 -0.55,-0.56 0.23,-0.5 22.37,1.74 41.71,11.25 1.18,0.58 0.77,1.84 -0.16,0.48 -0.62,0.25 z"
         id="path1011" /><path
         fill="#66abb4"
         d="m 328.85,224.18 q -17.38,1.24 -32.39,11.02 -2.62,1.7 -6.06,2.36 -0.49,0.09 -0.95,-0.11 c -4.21,-1.87 -2.86,-5.02 -0.58,-7.79 7.02,-8.48 16.03,-15.58 26.71,-18 q 15.67,-3.55 31.65,-1.72 c 3.27,0.37 16.39,1.92 12.48,8.15 -5.64,8.99 -22.18,5.47 -30.86,6.09 z"
         id="path1013" /><path
         fill="#000000"
         d="m 510.39,213.62 c -5.11,0.7 -8.09,2.11 -11.37,6.11 q -0.36,0.44 -0.87,0.2 c -0.98,-0.44 -0.95,-1.44 -0.38,-2.26 q 4.31,-6.23 12.02,-6.22 c 1.02,0 1.84,0.56 1.34,1.64 q -0.22,0.46 -0.74,0.53 z"
         id="path1015" /><path
         fill="#000000"
         d="m 259.91,222.57 c 7.14,1.73 6.18,-2.9 11.23,-4.93 q 2.58,-1.04 5.39,-1.05 0.59,0 0.95,0.48 0.89,1.17 -0.08,2.43 -0.29,0.39 -0.78,0.39 -4.81,0 -7.8,3.4 c -2.74,3.13 -5.71,3.98 -9.4,1.72 q -0.45,-0.27 -0.43,-0.79 l 0.03,-0.98 q 0.03,-0.87 0.89,-0.67 z"
         id="path1017" /><path
         fill="#66abb4"
         d="m 679.09,251.53 c -4.66,0.02 1.8,-9.17 -2.67,-12.69 q -8.53,-6.7 -15.44,-14.73 a 1.67,1.67 0 0 1 0.99,-2.74 q 9.84,-1.68 18.15,3.76 c 1.42,0.93 2.27,2.19 2.3,4.01 0.07,4.72 0.83,18.83 -2.45,22.03 q -0.37,0.36 -0.88,0.36 z"
         id="path1019" /><path
         fill="#000000"
         d="m 619.75,243.04 q 2.36,0.08 4.85,-0.28 0.65,-0.1 0.65,0.56 v 1.96 q 0,0.56 -0.56,0.59 -12.16,0.6 -24.25,-0.6 c -7.87,-0.79 -16.26,-3.72 -24.49,-5.36 -11.21,-2.24 -25.76,-2.36 -34.69,-3.68 -4.12,-0.61 -13.73,-2.27 -16.64,-5.24 q -0.44,-0.45 -0.06,-0.94 l 0.69,-0.92 q 0.4,-0.52 1.01,-0.29 c 13.8,5.32 31.33,5.38 42.42,6.5 8.3,0.83 16.56,3.66 25,5.43 8.48,1.78 17.3,1.98 26.07,2.27 z"
         id="path1021" /><path
         fill="#000000"
         d="m 422.72,239.27 c -12.86,0.16 -26.62,-0.95 -40.82,2.7 -8.8,2.26 -15.54,3.54 -23.16,2.32 q -15.01,-2.39 -29.47,-6.98 a 0.95,0.94 -74.8 0 1 -0.63,-1.12 q 0.45,-1.91 2.58,-1.33 c 13.4,3.71 30.6,8.39 44.03,5.41 4.9,-1.08 10.6,-3.03 15.76,-3.64 q 15.92,-1.88 31.94,-0.27 0.71,0.08 0.66,0.8 l -0.11,1.37 q -0.05,0.73 -0.78,0.74 z"
         id="path1023" /><path
         fill="#000000"
         d="m 393.49,253.47 c -4.65,-0.24 -7.97,0.02 -12.79,2.12 q -0.42,0.18 -0.85,0.04 -1.36,-0.45 -1.45,-1.71 -0.04,-0.48 0.38,-0.71 5.84,-3.36 10.72,-3.33 6.37,0.04 28,1.63 c 12.27,0.9 24.72,-4.1 34.59,-10.85 a 1.53,1.53 0 0 1 2.14,0.41 q 1.02,1.53 -0.45,2.49 c -10.95,7.19 -22.17,11.8 -36.02,11.13 q -12.14,-0.58 -24.27,-1.22 z"
         id="path1025" /><path
         fill="#000000"
         d="m 485.28,252.3 c -3.19,10.51 -16.59,18.25 -26.47,21.04 -12.65,3.57 -26.73,4.11 -39.81,3.87 q -35.33,-0.66 -70.08,-7.04 -35.07,-6.44 -64.73,-26.06 -0.44,-0.29 -0.44,-0.82 v -1.36 a 0.93,0.93 0 0 1 1.41,-0.8 c 7.23,4.32 14.83,8.99 22.1,12.34 18.86,8.68 37.71,12.8 58.11,15.95 25.68,3.96 53.72,5.94 79.37,3.33 q 9.96,-1.02 19.94,-5.05 c 5.5,-2.22 16.13,-9.77 17.51,-16.62 0.45,-2.24 -0.53,-4.52 -1.01,-6.72 q -0.1,-0.48 0.35,-0.64 l 1.29,-0.47 q 0.69,-0.25 0.97,0.43 l 1.87,4.55 q 0.18,0.44 0.63,0.6 c 38.25,14.18 78.72,17.67 118.88,13.7 q 2.35,-0.23 4.32,0.06 a 1.2,1.2 0 0 1 1.03,1.15 q 0.05,1.17 -1.05,1.32 c -40.9,5.58 -84.94,1.75 -123.68,-13.01 q -0.39,-0.14 -0.51,0.25 z"
         id="path1027" /><path
         fill="#000000"
         d="m 548,254 c -2.48,0 -26.33,-1.55 -22.35,-6.93 q 0.33,-0.45 0.86,-0.26 8.95,3.18 12.99,3.44 c 9.69,0.65 19.19,0.9 28.71,3.25 a 1.32,1.31 -72.3 0 1 0.9,1.76 c -0.68,1.71 -2.5,0.89 -3.84,0.62 Q 555.79,254 548,254 Z"
         id="path1029" /><path
         fill="#000000"
         d="m 578,275.25 q 20.99,0.9 40.04,-5.95 c 1.38,-0.5 2.85,-0.29 2.92,1.37 q 0.02,0.52 -0.45,0.71 -15.78,6.48 -31,6.86 c -33.65,0.84 -67.67,-4.66 -99.5,-17.35 a 1.22,1.21 -72.3 0 1 -0.73,-1.42 q 0.43,-1.72 2.1,-1.03 c 27.66,11.3 56.5,15.52 86.62,16.81 z"
         id="path1031" /><path
         fill="#000000"
         d="m 413.2,285.52 c -37.59,-7.83 -77.41,2.87 -110.88,-20.28 q -0.54,-0.37 -0.38,-1.01 c 0.41,-1.59 1.9,-1.57 3.08,-0.81 q 16.9,10.87 36.99,13.04 c 17.43,1.88 34.99,2.22 52.49,3.04 1.72,0.09 19.16,1.84 20.58,3.82 q 0.87,1.21 -1.02,2.1 a 1.32,1.3 37.9 0 1 -0.86,0.1 z"
         id="path1033" /><path
         fill="#000000"
         d="m 545.68,281.84 c 10.89,0.75 22.92,0.61 34.71,0.46 0.81,-0.01 1.65,0.5 1.69,1.32 a 0.86,0.85 -3.7 0 1 -0.8,0.9 c -33.25,2.18 -65.84,-1.91 -96.07,-15.8 a 0.63,0.63 0 0 1 -0.34,-0.75 c 0.38,-1.33 1.76,-1.13 2.82,-0.65 q 27.64,12.42 57.99,14.52 z"
         id="path1035" /><path
         fill="#000000"
         d="m 440.81,294.82 c 5.87,-2.39 6.93,-6.9 6.04,-12.8 q -0.1,-0.61 0.5,-0.75 l 1.49,-0.34 q 0.65,-0.15 0.82,0.5 c 3.66,13.78 -7.9,16.55 -17.34,20.64 q -4.93,2.14 -18.71,9.46 -0.62,0.33 -1.06,-0.21 l -0.8,-0.99 a 0.94,0.94 0 0 1 0.26,-1.41 q 14.36,-8.23 28.8,-14.1 z"
         id="path1037" /><path
         fill="#000000"
         d="m 354.48,288.25 q 24.9,-0.1 48.27,-2.25 1.23,-0.12 2.21,0.1 0.48,0.11 0.67,0.56 c 0.59,1.45 0.06,2.19 -1.41,2.34 q -29.55,2.99 -59.21,2.33 -13.68,-0.31 -25.96,-6.59 a 1.19,1.19 0 0 1 -0.03,-2.1 l 0.92,-0.5 q 0.45,-0.25 0.91,-0.02 c 10.69,5.33 21.89,6.17 33.63,6.13 z"
         id="path1039" /><path
         fill="#000000"
         d="M 431.73,290.02 Q 395,307.51 354.82,316.78 a 1.2,1.19 -28.5 0 1 -1.1,-0.32 c -1.09,-1.1 -0.25,-2.24 0.97,-2.59 29.39,-8.44 55.15,-16.45 81.31,-29.41 a 1.77,1.77 0 0 1 2.05,0.35 c 1.93,1.99 -5.06,4.62 -6.32,5.21 z"
         id="path1041" /><path
         fill="#000000"
         d="m 478.75,294.79 c 2.92,6.59 4.56,10.76 11.74,12.79 9.45,2.66 18.44,3.66 24.11,12.76 q 0.27,0.44 0.09,0.92 -0.45,1.13 -1.78,1.3 -0.58,0.08 -0.89,-0.41 c -9.86,-15.4 -32.39,-4.65 -35.87,-27.38 q -0.07,-0.45 0.31,-0.68 1.55,-0.98 2.29,0.7 z"
         id="path1043" /><path
         fill="#9a6040"
         d="m 619.66,427.15 c -15.71,19.03 -32.23,28.15 -55.87,33.48 q -27.47,6.2 -55.73,7.07 -50.96,1.57 -100.32,-5.9 c -11.56,-1.75 -24.18,-4.27 -35.01,-8.04 -15.53,-5.4 -32.49,-13.54 -44.57,-24.93 q -11.03,-10.38 -26.43,-27.55 c -10.58,-11.8 -32.57,-39.24 -12.66,-53.44 9.39,-6.69 28.26,-8.45 40.11,-8.95 86.85,-3.66 173.08,-1.65 259.41,8.84 13.28,1.61 52.69,6.29 59.71,20.78 4.62,9.55 -4.11,23.18 -9.18,31.42 q -8.77,14.27 -19.46,27.22 z M 549,445.75 q 13.93,-2.74 25.87,-8.34 c 19.49,-9.15 40,-30.34 46.2,-51.35 4.69,-15.9 -12.02,-19.18 -23.07,-21.04 q -48.32,-8.11 -97.25,-10.55 -58.27,-2.9 -137.9,-1.85 c -14.75,0.19 -29.22,0.42 -43.32,6.36 -16.53,6.95 -12.99,18.56 -3.13,29.4 q 6.65,7.32 13.44,14.54 33.37,35.51 80.77,43.49 6.65,1.12 19.86,2.21 c 28.21,2.34 56.46,4.44 84.75,2.37 11.42,-0.83 21.98,-2.92 33.78,-5.24 z"
         id="path1045" /><path
         fill="#000000"
         d="m 549,445.75 c -11.8,2.32 -22.36,4.41 -33.78,5.24 -28.29,2.07 -56.54,-0.03 -84.75,-2.37 q -13.21,-1.09 -19.86,-2.21 -47.4,-7.98 -80.77,-43.49 -6.79,-7.22 -13.44,-14.54 c -9.86,-10.84 -13.4,-22.45 3.13,-29.4 14.1,-5.94 28.57,-6.17 43.32,-6.36 q 79.63,-1.05 137.9,1.85 48.93,2.44 97.25,10.55 c 11.05,1.86 27.76,5.14 23.07,21.04 -6.2,21.01 -26.71,42.2 -46.2,51.35 q -11.94,5.6 -25.87,8.34 z M 349.29,356.88 c 2.98,12.97 5.11,25.81 5.98,39.04 q 0.04,0.58 0.62,0.55 l 33.41,-1.68 q 0.55,-0.03 0.5,-0.58 -1.8,-18.99 -5.52,-37.7 -0.13,-0.62 -0.76,-0.61 l -33.77,0.39 q -0.59,0.01 -0.46,0.59 z m 43.65,34.77 c 0.09,0.88 -0.06,1.38 -0.16,2.26 q -0.07,0.61 0.54,0.61 l 35.99,-0.03 a 0.77,0.77 0 0 0 0.76,-0.89 l -5.84,-37.02 q -0.09,-0.56 -0.65,-0.56 l -35.61,-0.06 q -0.45,0 -0.35,0.44 3.68,17.41 5.32,35.25 z m 69.81,-35.05 -34.88,-0.61 q -0.28,0 -0.24,0.27 l 5.88,37.75 q 0.08,0.52 0.61,0.54 l 37.47,1.4 q 0.53,0.02 0.5,-0.52 -1.41,-19.89 -8.75,-38.43 a 0.64,0.64 0 0 0 -0.59,-0.4 z m -149.12,21.9 c 4.25,7.1 10.5,14.22 16.64,19.78 q 0.41,0.37 0.96,0.32 l 20.04,-1.62 a 0.88,0.86 84.8 0 0 0.79,-0.96 q -1.93,-19.7 -6.03,-39.07 -0.1,-0.47 -0.58,-0.43 c -10.51,0.77 -21.5,2.97 -30.25,9.15 -4.95,3.5 -4.51,7.92 -1.57,12.83 z m 196.39,-20.05 -42.78,-1.84 q -0.55,-0.02 -0.34,0.49 7.55,18.57 8.61,38.63 0.02,0.43 0.45,0.46 l 42.11,2.9 q 0.55,0.04 0.51,-0.51 c -0.77,-13.39 -4.28,-26.63 -7.83,-39.55 q -0.16,-0.56 -0.73,-0.58 z m 42.35,3.63 -37.78,-3.46 q -0.71,-0.07 -0.49,0.61 6.31,19.43 8.1,39.77 0.04,0.48 0.52,0.53 l 34.32,3.72 a 0.77,0.77 0 0 0 0.85,-0.8 q -0.93,-20.23 -5.17,-40.05 -0.06,-0.29 -0.35,-0.32 z m 8.83,37.35 c 0.05,1.08 -0.35,2.91 -0.05,4.18 q 0.13,0.53 0.67,0.6 15.4,2.07 30.11,7.04 0.46,0.15 0.58,-0.32 c 3.58,-14.53 3.54,-28.01 2.05,-42.41 a 0.97,0.96 -89.3 0 0 -0.83,-0.86 l -36.98,-5.06 q -0.61,-0.08 -0.47,0.51 3.96,17.94 4.92,36.32 z m 36.62,-30.3 c 1.94,14.81 1.73,28.33 -1.97,42.72 q -0.12,0.42 0.18,0.76 c 2.38,2.7 4.08,1.65 6.08,-0.7 6.21,-7.25 19.26,-25.39 15.26,-35.13 -2.12,-5.17 -13.03,-7.35 -19.18,-8.03 q -0.43,-0.05 -0.37,0.38 z m -204.55,29.34 c -0.24,13.3 -1.7,25.11 -5.32,37.93 q -0.13,0.47 0.33,0.63 19.44,6.72 40,8.02 0.51,0.03 0.6,-0.47 4.34,-23.08 1.51,-46.43 -0.08,-0.67 -0.75,-0.67 l -35.6,0.23 q -0.76,0.01 -0.77,0.76 z m 40.44,-0.1 c 2.26,16.38 1.36,29.98 -1.41,46.54 q -0.09,0.54 0.46,0.58 l 33.7,2.33 a 1.09,1.08 -79.6 0 0 1.11,-0.77 q 6.81,-23.15 4.84,-47.24 -0.05,-0.61 -0.66,-0.64 l -37.49,-1.41 q -0.64,-0.03 -0.55,0.61 z m -48.97,36.81 c 3.2,-11.43 5.09,-23.81 5.3,-36.55 q 0.02,-0.63 -0.62,-0.6 l -33.11,1.66 q -0.74,0.03 -0.76,0.78 -0.17,9.18 -2.23,18.15 -0.11,0.51 0.32,0.81 14.29,9.91 30.58,16.01 0.4,0.15 0.52,-0.26 z m 89.65,12.87 q 18.16,0.95 36.11,-0.14 a 0.79,0.78 -84.8 0 0 0.7,-0.59 c 3.6,-14.59 7.08,-29.1 7.58,-44.12 a 0.89,0.89 0 0 0 -0.83,-0.92 l -41.41,-2.9 q -0.86,-0.06 -0.78,0.8 2.29,24.22 -4.81,47.4 -0.17,0.55 0.39,0.65 c 0.97,0.18 2.24,-0.22 3.05,-0.18 z M 351.93,400.34 c -5.98,0.04 -12.46,0.57 -18.33,1.55 q -0.45,0.07 -0.11,0.37 l 16.2,14.34 q 0.68,0.61 0.8,-0.3 l 1.93,-15.42 q 0.07,-0.55 -0.49,-0.54 z m 170.08,5.15 c -0.38,13.04 -2.81,23.91 -7.31,41.59 q -0.2,0.8 0.61,0.68 l 30.78,-4.51 q 0.62,-0.1 0.93,-0.65 8.91,-16.34 10.5,-34.9 0.1,-1.17 -1.07,-1.3 l -33.66,-3.66 q -0.55,-0.06 -0.61,0.49 -0.14,1.17 -0.17,2.26 z m 38.31,6.99 q -1.7,15.24 -8.86,28.75 -0.26,0.48 0.28,0.38 20.13,-3.91 36.54,-16.16 0.34,-0.26 0.46,-0.67 l 2.75,-9.72 q 0.14,-0.48 -0.33,-0.64 -14.47,-4.94 -29.65,-7.01 -0.55,-0.07 -0.62,0.48 -0.32,2.4 -0.57,4.59 z m 36.92,5.16 a 0.31,0.31 0 0 0 -0.05,-0.49 l -2.03,-1.25 a 0.31,0.31 0 0 0 -0.46,0.17 l -1.21,4.25 a 0.31,0.31 0 0 0 0.51,0.31 z"
         id="path1047" /><path
         fill="#000000"
         d="m 287.21,424.25 c -1.49,-12.83 -24.93,-8.61 -25.02,-24.11 -0.01,-1.54 -0.52,-2.72 -0.9,-4.14 q -0.89,-3.38 -2.09,-4.7 c -10.76,-11.8 -13.97,-21.88 -9.42,-37.72 a 1.26,1.25 -75.4 0 1 1.49,-0.88 q 1.69,0.39 1.12,2.52 -2.7,9.93 -0.18,19.58 c 1.46,5.6 5.66,10.06 9.45,14.77 4.68,5.81 1.09,15.13 8.4,18.39 q 11.88,5.31 15.4,7.55 c 2.94,1.86 4.18,4.39 4.95,8.17 1.97,9.8 12.38,15.36 20.43,20.3 a 1.44,1.44 0 0 1 0.33,2.17 l -0.39,0.45 q -0.41,0.49 -0.98,0.18 c -8.48,-4.52 -20.66,-11.44 -22.59,-22.53 z"
         id="path1049" /><path
         fill="#ffffff"
         d="m 355.27,395.92 c -0.87,-13.23 -3,-26.07 -5.98,-39.04 q -0.13,-0.58 0.46,-0.59 l 33.77,-0.39 q 0.63,-0.01 0.76,0.61 3.72,18.71 5.52,37.7 0.05,0.55 -0.5,0.58 l -33.41,1.68 q -0.58,0.03 -0.62,-0.55 z"
         id="path1051" /><path
         fill="#ffffff"
         d="m 392.94,391.65 q -1.64,-17.84 -5.32,-35.25 -0.1,-0.44 0.35,-0.44 l 35.61,0.06 q 0.56,0 0.65,0.56 l 5.84,37.02 a 0.77,0.77 0 0 1 -0.76,0.89 l -35.99,0.03 q -0.61,0 -0.54,-0.61 c 0.1,-0.88 0.25,-1.38 0.16,-2.26 z"
         id="path1053" /><path
         fill="#ffffff"
         d="m 427.87,355.99 34.88,0.61 a 0.64,0.64 0 0 1 0.59,0.4 q 7.34,18.54 8.75,38.43 0.03,0.54 -0.5,0.52 l -37.47,-1.4 q -0.53,-0.02 -0.61,-0.54 l -5.88,-37.75 q -0.04,-0.27 0.24,-0.27 z"
         id="path1055" /><path
         fill="#ffffff"
         d="m 330.27,398.28 c -6.14,-5.56 -12.39,-12.68 -16.64,-19.78 -2.94,-4.91 -3.38,-9.33 1.57,-12.83 8.75,-6.18 19.74,-8.38 30.25,-9.15 q 0.48,-0.04 0.58,0.43 4.1,19.37 6.03,39.07 a 0.88,0.86 84.8 0 1 -0.79,0.96 l -20.04,1.62 q -0.55,0.05 -0.96,-0.32 z"
         id="path1057" /><path
         fill="#ffffff"
         d="m 467.24,356.61 42.78,1.84 q 0.57,0.02 0.73,0.58 c 3.55,12.92 7.06,26.16 7.83,39.55 q 0.04,0.55 -0.51,0.51 l -42.11,-2.9 q -0.43,-0.03 -0.45,-0.46 -1.06,-20.06 -8.61,-38.63 -0.21,-0.51 0.34,-0.49 z"
         id="path1059" /><path
         fill="#ffffff"
         d="m 514.59,358.62 37.78,3.46 q 0.29,0.03 0.35,0.32 4.24,19.82 5.17,40.05 a 0.77,0.77 0 0 1 -0.85,0.8 l -34.32,-3.72 q -0.48,-0.05 -0.52,-0.53 -1.79,-20.34 -8.1,-39.77 -0.22,-0.68 0.49,-0.61 z"
         id="path1061" /><path
         fill="#ffffff"
         d="m 561.2,399.43 q -0.96,-18.38 -4.92,-36.32 -0.14,-0.59 0.47,-0.51 l 36.98,5.06 a 0.97,0.96 -89.3 0 1 0.83,0.86 c 1.49,14.4 1.53,27.88 -2.05,42.41 q -0.12,0.47 -0.58,0.32 -14.71,-4.97 -30.11,-7.04 -0.54,-0.07 -0.67,-0.6 c -0.3,-1.27 0.1,-3.1 0.05,-4.18 z"
         id="path1063" /><path
         fill="#ffffff"
         d="m 595.85,411.85 c 3.7,-14.39 3.91,-27.91 1.97,-42.72 q -0.06,-0.43 0.37,-0.38 c 6.15,0.68 17.06,2.86 19.18,8.03 4,9.74 -9.05,27.88 -15.26,35.13 -2,2.35 -3.7,3.4 -6.08,0.7 q -0.3,-0.34 -0.18,-0.76 z"
         id="path1065" /><path
         fill="#4c6a3a"
         d="m 261.29,396 c 0.38,1.42 0.89,2.6 0.9,4.14 0.09,15.5 23.53,11.28 25.02,24.11 -1.81,-0.66 -2.66,-2.28 -3.75,-3.16 -9.38,-7.53 -24.59,-8.52 -22.17,-25.09 z"
         id="path1067" /><path
         fill="#ffffff"
         d="m 387.95,436.4 c 3.62,-12.82 5.08,-24.63 5.32,-37.93 q 0.01,-0.75 0.77,-0.76 l 35.6,-0.23 q 0.67,0 0.75,0.67 2.83,23.35 -1.51,46.43 -0.09,0.5 -0.6,0.47 -20.56,-1.3 -40,-8.02 -0.46,-0.16 -0.33,-0.63 z"
         id="path1069" /><path
         fill="#ffffff"
         d="m 432.3,444.91 c 2.77,-16.56 3.67,-30.16 1.41,-46.54 q -0.09,-0.64 0.55,-0.61 l 37.49,1.41 q 0.61,0.03 0.66,0.64 1.97,24.09 -4.84,47.24 a 1.09,1.08 -79.6 0 1 -1.11,0.77 l -33.7,-2.33 q -0.55,-0.04 -0.46,-0.58 z"
         id="path1071" /><path
         fill="#ffffff"
         d="m 390.04,398.63 c -0.21,12.74 -2.1,25.12 -5.3,36.55 q -0.12,0.41 -0.52,0.26 -16.29,-6.1 -30.58,-16.01 -0.43,-0.3 -0.32,-0.81 2.06,-8.97 2.23,-18.15 0.02,-0.75 0.76,-0.78 l 33.11,-1.66 q 0.64,-0.03 0.62,0.6 z"
         id="path1073" /><path
         fill="#ffffff"
         d="m 474.39,448.05 c -0.81,-0.04 -2.08,0.36 -3.05,0.18 q -0.56,-0.1 -0.39,-0.65 7.1,-23.18 4.81,-47.4 -0.08,-0.86 0.78,-0.8 l 41.41,2.9 a 0.89,0.89 0 0 1 0.83,0.92 c -0.5,15.02 -3.98,29.53 -7.58,44.12 a 0.79,0.78 -84.8 0 1 -0.7,0.59 q -17.95,1.09 -36.11,0.14 z"
         id="path1075" /><path
         fill="#ffffff"
         d="m 333.6,401.89 c 5.87,-0.98 12.35,-1.51 18.33,-1.55 q 0.56,-0.01 0.49,0.54 l -1.93,15.42 q -0.12,0.91 -0.8,0.3 l -16.2,-14.34 q -0.34,-0.3 0.11,-0.37 z"
         id="path1077" /><path
         fill="#ffffff"
         d="m 522.01,405.49 q 0.03,-1.09 0.17,-2.26 0.06,-0.55 0.61,-0.49 l 33.66,3.66 q 1.17,0.13 1.07,1.3 -1.59,18.56 -10.5,34.9 -0.31,0.55 -0.93,0.65 l -30.78,4.51 q -0.81,0.12 -0.61,-0.68 c 4.5,-17.68 6.93,-28.55 7.31,-41.59 z"
         id="path1079" /><path
         fill="#ffffff"
         d="m 560.32,412.48 q 0.25,-2.19 0.57,-4.59 0.07,-0.55 0.62,-0.48 15.18,2.07 29.65,7.01 0.47,0.16 0.33,0.64 l -2.75,9.72 q -0.12,0.41 -0.46,0.67 -16.41,12.25 -36.54,16.16 -0.54,0.1 -0.28,-0.38 7.16,-13.51 8.86,-28.75 z"
         id="path1081" /><path
         fill="#ffffff"
         d="m 597.24,417.64 -3.24,2.99 a 0.31,0.31 0 0 1 -0.51,-0.31 l 1.21,-4.25 a 0.31,0.31 0 0 1 0.46,-0.17 l 2.03,1.25 a 0.31,0.31 0 0 1 0.05,0.49 z"
         id="path1083" /><path
         fill="#000000"
         d="m 225.63,461.96 q -16.21,-6.24 -24.59,-21.46 -2.99,-7.06 -4.07,-14.68 -0.07,-0.52 0.39,-0.77 c 1.45,-0.79 2.63,0.02 2.88,1.57 2.49,15.75 12.74,29.42 29.01,32.54 q 4.43,0.85 8.83,1.7 0.59,0.11 0.46,0.7 l -0.4,1.67 q -0.18,0.74 -0.93,0.62 z"
         id="path1085" /><path
         fill="#4c6a3a"
         d="m 201.04,440.5 q 8.38,15.22 24.59,21.46 -17.83,-3.31 -25.21,-19.91 -0.2,-0.45 0.09,-0.84 z"
         id="path1087" /><path
         fill="#4c6a3a"
         d="m 126.04,485 c -2.4,4.74 1.03,8.92 -1.33,13 -16.23,-8.09 -31.97,-19.34 -46.8,-29.98 a 1.52,1.48 -76.1 0 1 -0.61,-1.04 q -0.57,-5.07 -0.15,-10.12 0.19,-2.23 1.81,-0.69 c 13.5,12.86 30.1,21 47.08,28.83 z"
         id="path1089" /><path
         fill="#324799"
         d="m 131.75,505.21 c -2.64,-0.03 -5.03,-1.5 -7.4,-1.08 -4.08,0.72 -5.84,2.76 -9.51,6.22 q -21.91,20.66 -25.12,51.18 -0.37,3.55 -1.01,7.07 a 1.19,1.19 0 0 0 0.71,1.31 q 4.79,2.01 7.77,6.18 -9.99,-4.95 -19.77,-10.27 c -7.23,-3.93 -14.53,-8.99 -21.88,-13.51 -7.06,-4.35 -14.56,-9.24 -19.63,-13.26 q -10.09,-7.98 -6.85,-21.57 c 3.48,-14.63 14.91,-39.36 30.12,-45.71 4.42,-1.85 13.82,-3.65 18.09,-0.52 q 25.96,19.02 54.48,33.96 z"
         id="path1091" /><path
         fill="#608547"
         d="m 126.04,485 5.51,2.14 q 1.29,2.22 4.98,3.82 8.8,3.83 17.66,7.56 c 3.86,1.63 8.52,2.03 12.67,4.28 q 0.46,0.25 0.97,0.18 1.09,-0.14 1.62,0.73 0.27,0.44 0.78,0.54 6.8,1.28 13.27,3.6 c 11.68,4.18 22.61,6.05 36.27,9.42 33.81,8.32 68.55,14.14 103,19.08 q 30.22,4.34 60.72,5.65 c 20.51,0.88 44.56,-1.95 62.8,-3.87 1.52,-0.16 3.08,-0.83 4.68,-1.16 q 0.52,-0.1 0.77,0.37 l 1.01,1.87 q -11.64,4.95 -20.51,6.49 c -23.28,4.02 -46.6,3.93 -70.55,2.94 q -45.39,-1.88 -90.45,-7.81 C 220.4,534.14 169.55,523.43 124.71,498 c 2.36,-4.08 -1.07,-8.26 1.33,-13 z"
         id="path1093" /><path
         fill="#4c6a3a"
         d="m 131.55,487.14 c 31.24,12.37 62.26,20.34 95.52,26.49 50.41,9.3 101.76,17.4 152.87,21.53 q 40.92,3.3 81.03,-5.33 0.53,-0.11 0.53,0.43 v 3.97 q 0,0.45 -0.41,0.66 l -8.34,4.32 -1.01,-1.87 q -0.25,-0.47 -0.77,-0.37 c -1.6,0.33 -3.16,1 -4.68,1.16 -18.24,1.92 -42.29,4.75 -62.8,3.87 q -30.5,-1.31 -60.72,-5.65 c -34.45,-4.94 -69.19,-10.76 -103,-19.08 -13.66,-3.37 -24.59,-5.24 -36.27,-9.42 q -6.47,-2.32 -13.27,-3.6 -0.51,-0.1 -0.78,-0.54 -0.53,-0.87 -1.62,-0.73 -0.51,0.07 -0.97,-0.18 c -4.15,-2.25 -8.81,-2.65 -12.67,-4.28 q -8.86,-3.73 -17.66,-7.56 -3.69,-1.6 -4.98,-3.82 z"
         id="path1095" /><path
         fill="#4057a2"
         d="m 131.75,505.21 c 31.69,16.44 66.96,26.79 102.91,33.02 52.52,9.1 107.06,14.56 160.4,13.84 25.18,-0.34 45.97,-2.81 67.46,-14.57 q 1.21,-0.67 2.37,0.33 0.37,0.32 0.86,0.4 c 22.01,3.73 32.3,15.74 34.8,37.44 0.73,6.38 -0.03,13.17 -0.5,19.66 a 1.53,1.51 72.7 0 1 -0.55,1.06 c -15.92,12.8 -33.56,20.88 -53.76,24.09 -36.69,5.82 -75.33,5.05 -112.31,2.73 Q 278.44,619.76 225.5,611.73 C 181.48,605.06 138.01,595.04 97.19,576.09 q -2.98,-4.17 -7.77,-6.18 a 1.19,1.19 0 0 1 -0.71,-1.31 q 0.64,-3.52 1.01,-7.07 3.21,-30.52 25.12,-51.18 c 3.67,-3.46 5.43,-5.5 9.51,-6.22 2.37,-0.42 4.76,1.05 7.4,1.08 z"
         id="path1097" /></g><text
       xml:space="preserve"
       style="font-style:normal;font-variant:normal;font-weight:normal;font-stretch:normal;font-size:277.714px;font-family:Fontin;-inkscape-font-specification:'Fontin, Normal';font-variant-ligatures:normal;font-variant-caps:normal;font-variant-numeric:normal;font-variant-east-asian:normal;fill:#dfcf99;fill-opacity:1;stroke-width:5.20713"
       x="-383.49991"
       y="52.207603"
       id="text1718"><tspan
         sodipodi:role="line"
         id="tspan1716"
         style="font-style:normal;font-variant:normal;font-weight:normal;font-stretch:normal;font-size:277.714px;font-family:Fontin;-inkscape-font-specification:'Fontin, Normal';font-variant-ligatures:normal;font-variant-caps:normal;font-variant-numeric:normal;font-variant-east-asian:normal;fill:#dfcf99;fill-opacity:1;stroke-width:5.20713"
         x="-383.49991"
         y="52.207603">Smol app</tspan></text></g></svg>
